<svg width="475" height="444" viewBox="0 0 475 444" xmlns="http://www.w3.org/2000/svg">
<rect width="475" height="444" fill="white"/>

<!-- STRONG panel -->
<g transform="scale(1.0412,1.0412)">


<!-- Generated by graphviz version 2.43.0 (0)
 -->
<!-- Title: strong Pages: 1 -->

<g id="graph0" class="graph" transform="scale(1 1) rotate(0) translate(43.2 345.2)">
<title>strong</title>
<polygon fill="white" stroke="transparent" points="-43.2,43.2 -43.2,-345.2 175.2,-345.2 175.2,43.2 -43.2,43.2"/>
<text text-anchor="middle" x="66" y="-287.6" font-family="Liberation Sans" font-size="13.00" fill="#0f6e56">STRONG threshold</text>
<g id="clust1" class="cluster">
<title>cluster_iso</title>
<polygon fill="#e1f5ee" stroke="#0f6e56" stroke-width="1.5" stroke-dasharray="5,2" points="19,-104 19,-272 75,-272 75,-104 19,-104"/>
</g>
<!-- l1 -->
<g id="node1" class="node">
<title>l1</title>
<ellipse fill="#1a1a1a" stroke="black" stroke-width="0" cx="47" cy="-244" rx="20" ry="20"/>
<text text-anchor="middle" x="47" y="-240.6" font-family="Liberation Sans" font-size="13.00" fill="white">l₁</text>
</g>
<!-- l2 -->
<g id="node2" class="node">
<title>l2</title>
<ellipse fill="#1a1a1a" stroke="black" stroke-width="0" cx="47" cy="-132" rx="20" ry="20"/>
<text text-anchor="middle" x="47" y="-128.6" font-family="Liberation Sans" font-size="13.00" fill="white">l₂</text>
</g>
<!-- l1&#45;&gt;l2 -->
<g id="edge1" class="edge">
<title>l1&#45;&gt;l2</title>
<path fill="none" stroke="#1a1a1a" stroke-width="4" d="M47,-223.84C47,-203.77 47,-172.43 47,-152.31"/>
</g>
<!-- l3 -->
<g id="node3" class="node">
<title>l3</title>
<ellipse fill="#999999" stroke="black" stroke-width="0" cx="101" cy="-20" rx="20" ry="20"/>
<text text-anchor="middle" x="101" y="-16.6" font-family="Liberation Sans" font-size="13.00" fill="white">l₃</text>
</g>
<!-- l1&#45;&gt;l3 -->
<g id="edge2" class="edge">
<title>l1&#45;&gt;l3</title>
<path fill="none" stroke="#cccccc" stroke-dasharray="5,2" d="M58.44,-227.19C70.33,-209.75 88.26,-180.39 96,-152 106.53,-113.35 104.95,-65.93 102.93,-40.06"/>
</g>
<!-- l2&#45;&gt;l3 -->
<g id="edge3" class="edge">
<title>l2&#45;&gt;l3</title>
<path fill="none" stroke="#cccccc" stroke-dasharray="5,2" d="M55.44,-113.81C65.52,-93.27 82.31,-59.08 92.44,-38.43"/>
</g>
</g>

</g>

<!-- WEAK panel -->
<g transform="translate(257,0) scale(1.0000,1.0000)">


<!-- Generated by graphviz version 2.43.0 (0)
 -->
<!-- Title: weak Pages: 1 -->

<g id="graph0" class="graph" transform="scale(1 1) rotate(0) translate(43.2 361.2)">
<title>weak</title>
<polygon fill="white" stroke="transparent" points="-43.2,43.2 -43.2,-361.2 175.2,-361.2 175.2,43.2 -43.2,43.2"/>
<text text-anchor="middle" x="66" y="-303.6" font-family="Liberation Sans" font-size="13.00" fill="#854f0b">WEAK threshold</text>
<g id="clust1" class="cluster">
<title>cluster_iso</title>
<polygon fill="#faeeda" stroke="#854f0b" stroke-width="1.5" stroke-dasharray="5,2" points="8,-8 8,-288 124,-288 124,-8 8,-8"/>
</g>
<!-- l1 -->
<g id="node1" class="node">
<title>l1</title>
<ellipse fill="#1a1a1a" stroke="black" stroke-width="0" cx="66" cy="-260" rx="20" ry="20"/>
<text text-anchor="middle" x="66" y="-256.6" font-family="Liberation Sans" font-size="13.00" fill="white">l₁</text>
</g>
<!-- l2 -->
<g id="node2" class="node">
<title>l2</title>
<ellipse fill="#1a1a1a" stroke="black" stroke-width="0" cx="36" cy="-148" rx="20" ry="20"/>
<text text-anchor="middle" x="36" y="-144.6" font-family="Liberation Sans" font-size="13.00" fill="white">l₂</text>
</g>
<!-- l1&#45;&gt;l2 -->
<g id="edge1" class="edge">
<title>l1&#45;&gt;l2</title>
<path fill="none" stroke="#1a1a1a" stroke-width="4" d="M60.91,-240.34C55.36,-219.99 46.53,-187.63 41.01,-167.38"/>
</g>
<!-- l3 -->
<g id="node3" class="node">
<title>l3</title>
<ellipse fill="#1a1a1a" stroke="black" stroke-width="0" cx="66" cy="-36" rx="20" ry="20"/>
<text text-anchor="middle" x="66" y="-32.6" font-family="Liberation Sans" font-size="13.00" fill="white">l₃</text>
</g>
<!-- l1&#45;&gt;l3 -->
<g id="edge2" class="edge">
<title>l1&#45;&gt;l3</title>
<path fill="none" stroke="#555555" stroke-width="2" d="M71.07,-240.35C75.76,-222.08 82.38,-193.37 85,-168 89.16,-127.77 78.62,-80.94 71.62,-55.6"/>
</g>
<!-- l2&#45;&gt;l3 -->
<g id="edge3" class="edge">
<title>l2&#45;&gt;l3</title>
<path fill="none" stroke="#854f0b" stroke-width="1.2" d="M41.09,-128.34C46.64,-107.99 55.47,-75.63 60.99,-55.38"/>
</g>
</g>

</g>

<!-- Bottom caption -->
<text font-family="Liberation Sans, sans-serif" font-size="11" fill="#888"
      x="237" y="436" text-anchor="middle">
  complete-linkage: a cluster forms only when every pair within it exceeds the threshold
</text>
</svg>