<svg width="680" viewBox="0 0 680 430" xmlns="http://www.w3.org/2000/svg" font-family="Helvetica Neue, Helvetica, Arial, sans-serif">
<rect width="680" height="430" fill="white"/>
<defs>
<marker id="arrow" viewBox="0 0 10 10" refX="8" refY="5" markerWidth="6" markerHeight="6" orient="auto-start-reverse">
<path d="M2 1L8 5L2 9" fill="none" stroke="context-stroke" stroke-width="1.5" stroke-linecap="round" stroke-linejoin="round"/>
</marker>
</defs>

<!-- ROW 1 left to right y=62: Stage 1 -->
<text font-size="11" fill="#777" x="340" y="34" text-anchor="middle">Stage 1 — lexeme extraction</text>

<rect x="57" y="44" width="84" height="36" rx="6" fill="#f1efe8" stroke="#888780" stroke-width="0.5"/>
<text font-size="12" fill="#5f5e5a" x="99" y="66" text-anchor="middle">source text</text>

<rect x="187" y="44" width="72" height="36" rx="6" fill="#e1f5ee" stroke="#0f6e56" stroke-width="0.5"/>
<text font-size="12" fill="#085041" x="223" y="66" text-anchor="middle">tokenize</text>

<rect x="304" y="44" width="70" height="36" rx="6" fill="#e1f5ee" stroke="#0f6e56" stroke-width="0.5"/>
<text font-size="12" fill="#085041" x="339" y="66" text-anchor="middle">POS tag</text>

<rect x="419" y="44" width="82" height="36" rx="6" fill="#e1f5ee" stroke="#0f6e56" stroke-width="0.5"/>
<text font-size="12" fill="#085041" x="460" y="57" text-anchor="middle">filter</text>
<text font-size="12" fill="#085041" x="460" y="71" text-anchor="middle">N/V/Adj/Adv</text>

<rect x="547" y="44" width="76" height="36" rx="6" fill="#e1f5ee" stroke="#0f6e56" stroke-width="0.5"/>
<text font-size="12" fill="#085041" x="585" y="66" text-anchor="middle">lemmatize</text>

<!-- TURN 1 -->
<polyline points="627,62 650,62 650,148 633,148" fill="none" stroke="#1a1a1a" stroke-width="1" marker-end="url(#arrow)"/>

<!-- ROW 2 right to left y=148: Stage 2 -->
<text font-size="11" fill="#777" x="340" y="120" text-anchor="middle">Stage 2 — definition lookup &amp; sense selection</text>

<rect x="561" y="130" width="68" height="36" rx="6" fill="#eeedfe" stroke="#534ab7" stroke-width="0.5"/>
<text font-size="12" fill="#3c3489" x="595" y="144" text-anchor="middle">fetch</text>
<text font-size="12" fill="#3c3489" x="595" y="158" text-anchor="middle">defs</text>

<rect x="450" y="130" width="78" height="36" rx="6" fill="#eeedfe" stroke="#534ab7" stroke-width="0.5"/>
<text font-size="12" fill="#3c3489" x="489" y="144" text-anchor="middle">tokenize</text>
<text font-size="12" fill="#3c3489" x="489" y="158" text-anchor="middle">+ lemmatize</text>

<rect x="343" y="130" width="74" height="36" rx="6" fill="#eeedfe" stroke="#534ab7" stroke-width="0.5"/>
<text font-size="12" fill="#3c3489" x="380" y="144" text-anchor="middle">redirect</text>
<text font-size="12" fill="#3c3489" x="380" y="158" text-anchor="middle">filter ◆</text>

<rect x="238" y="130" width="72" height="36" rx="6" fill="#eeedfe" stroke="#534ab7" stroke-width="0.5"/>
<text font-size="12" fill="#3c3489" x="274" y="144" text-anchor="middle">Lesk</text>
<text font-size="12" fill="#3c3489" x="274" y="158" text-anchor="middle">scoring</text>

<rect x="133" y="130" width="72" height="36" rx="6" fill="#eeedfe" stroke="#534ab7" stroke-width="0.5"/>
<text font-size="12" fill="#3c3489" x="169" y="144" text-anchor="middle">top-2</text>
<text font-size="12" fill="#3c3489" x="169" y="158" text-anchor="middle">senses</text>

<rect x="28" y="130" width="72" height="36" rx="6" fill="#eeedfe" stroke="#534ab7" stroke-width="0.5"/>
<text font-size="12" fill="#3c3489" x="64" y="144" text-anchor="middle">merge &amp;</text>
<text font-size="12" fill="#3c3489" x="64" y="158" text-anchor="middle">filter ◆</text>

<!-- TURN 2 -->
<polyline points="24,148 10,148 10,252 31,252" fill="none" stroke="#1a1a1a" stroke-width="1" marker-end="url(#arrow)"/>

<!-- ROW 3 left to right y=252: Stage 3 -->
<text font-size="11" fill="#777" x="340" y="224" text-anchor="middle">Stage 3 — IDF weighting, profiles &amp; bipartite graph</text>

<rect x="35" y="234" width="82" height="36" rx="6" fill="#f1efe8" stroke="#888780" stroke-width="0.5"/>
<text font-size="12" fill="#5f5e5a" x="76" y="248" text-anchor="middle">seme</text>
<text font-size="12" fill="#5f5e5a" x="76" y="262" text-anchor="middle">list</text>

<rect x="163" y="234" width="82" height="36" rx="6" fill="#faece7" stroke="#993c1d" stroke-width="0.5"/>
<text font-size="12" fill="#712b13" x="204" y="248" text-anchor="middle">FRAME</text>
<text font-size="12" fill="#712b13" x="204" y="262" text-anchor="middle">filter ◆</text>

<rect x="291" y="234" width="90" height="36" rx="6" fill="#faece7" stroke="#993c1d" stroke-width="0.5"/>
<text font-size="12" fill="#712b13" x="336" y="248" text-anchor="middle">IDF weight</text>
<text font-size="12" fill="#712b13" x="336" y="262" text-anchor="middle">log(N/df) ◆</text>

<rect x="427" y="234" width="82" height="36" rx="6" fill="#faece7" stroke="#993c1d" stroke-width="0.5"/>
<text font-size="12" fill="#712b13" x="468" y="248" text-anchor="middle">weighted</text>
<text font-size="12" fill="#712b13" x="468" y="262" text-anchor="middle">profile</text>

<rect x="555" y="234" width="82" height="36" rx="6" fill="#faece7" stroke="#993c1d" stroke-width="0.5"/>
<text font-size="12" fill="#712b13" x="596" y="248" text-anchor="middle">bipartite</text>
<text font-size="12" fill="#712b13" x="596" y="262" text-anchor="middle">graph</text>

<!-- TURN 3 -->
<polyline points="641,252 660,252 660,356 638,356" fill="none" stroke="#1a1a1a" stroke-width="1" marker-end="url(#arrow)"/>

<!-- ROW 4 right to left y=356: Stage 4 + Stage 5 -->
<text font-size="11" fill="#777" x="465" y="328" text-anchor="middle">Stage 4 — similarity scoring &amp; graph construction</text>
<text font-size="11" fill="#777" x="182" y="328" text-anchor="middle">Stage 5 — clustering</text>

<rect x="548" y="338" width="86" height="36" rx="6" fill="#faeeda" stroke="#854f0b" stroke-width="0.5"/>
<text font-size="12" fill="#633806" x="591" y="352" text-anchor="middle">project</text>
<text font-size="12" fill="#633806" x="591" y="366" text-anchor="middle">min operator</text>

<rect x="446" y="338" width="76" height="36" rx="6" fill="#faeeda" stroke="#854f0b" stroke-width="0.5"/>
<text font-size="12" fill="#633806" x="484" y="352" text-anchor="middle">edge</text>
<text font-size="12" fill="#633806" x="484" y="366" text-anchor="middle">scores</text>

<rect x="344" y="338" width="84" height="36" rx="6" fill="#faeeda" stroke="#854f0b" stroke-width="0.5"/>
<text font-size="12" fill="#633806" x="386" y="352" text-anchor="middle">similarity</text>
<text font-size="12" fill="#633806" x="386" y="366" text-anchor="middle">graph</text>

<rect x="242" y="338" width="84" height="36" rx="6" fill="#faeeda" stroke="#854f0b" stroke-width="0.5"/>
<text font-size="12" fill="#633806" x="284" y="352" text-anchor="middle">threshold</text>
<text font-size="12" fill="#633806" x="284" y="366" text-anchor="middle">S / M / W ◆</text>

<rect x="140" y="338" width="84" height="36" rx="6" fill="#e8eef8" stroke="#2d4f8a" stroke-width="0.5"/>
<text font-size="12" fill="#1e3660" x="182" y="352" text-anchor="middle">complete-</text>
<text font-size="12" fill="#1e3660" x="182" y="366" text-anchor="middle">linkage</text>

<rect x="38" y="338" width="84" height="36" rx="6" fill="#f1efe8" stroke="#888780" stroke-width="0.5"/>
<text font-size="12" fill="#5f5e5a" x="80" y="352" text-anchor="middle">isotopy</text>
<text font-size="12" fill="#5f5e5a" x="80" y="366" text-anchor="middle">clusters</text>

<line x1="145" y1="62" x2="183" y2="62" stroke="#1a1a1a" stroke-width="1" marker-end="url(#arrow)"/>
<line x1="263" y1="62" x2="300" y2="62" stroke="#1a1a1a" stroke-width="1" marker-end="url(#arrow)"/>
<line x1="378" y1="62" x2="415" y2="62" stroke="#1a1a1a" stroke-width="1" marker-end="url(#arrow)"/>
<line x1="505" y1="62" x2="543" y2="62" stroke="#1a1a1a" stroke-width="1" marker-end="url(#arrow)"/>
<line x1="557" y1="148" x2="532" y2="148" stroke="#1a1a1a" stroke-width="1" marker-end="url(#arrow)"/>
<line x1="446" y1="148" x2="421" y2="148" stroke="#1a1a1a" stroke-width="1" marker-end="url(#arrow)"/>
<line x1="339" y1="148" x2="314" y2="148" stroke="#1a1a1a" stroke-width="1" marker-end="url(#arrow)"/>
<line x1="234" y1="148" x2="209" y2="148" stroke="#1a1a1a" stroke-width="1" marker-end="url(#arrow)"/>
<line x1="129" y1="148" x2="104" y2="148" stroke="#1a1a1a" stroke-width="1" marker-end="url(#arrow)"/>
<line x1="121" y1="252" x2="159" y2="252" stroke="#1a1a1a" stroke-width="1" marker-end="url(#arrow)"/>
<line x1="249" y1="252" x2="287" y2="252" stroke="#1a1a1a" stroke-width="1" marker-end="url(#arrow)"/>
<line x1="385" y1="252" x2="423" y2="252" stroke="#1a1a1a" stroke-width="1" marker-end="url(#arrow)"/>
<line x1="513" y1="252" x2="551" y2="252" stroke="#1a1a1a" stroke-width="1" marker-end="url(#arrow)"/>
<line x1="544" y1="356" x2="526" y2="356" stroke="#1a1a1a" stroke-width="1" marker-end="url(#arrow)"/>
<line x1="442" y1="356" x2="432" y2="356" stroke="#1a1a1a" stroke-width="1" marker-end="url(#arrow)"/>
<line x1="340" y1="356" x2="330" y2="356" stroke="#1a1a1a" stroke-width="1" marker-end="url(#arrow)"/>
<line x1="238" y1="356" x2="228" y2="356" stroke="#1a1a1a" stroke-width="1" marker-end="url(#arrow)"/>
<line x1="136" y1="356" x2="126" y2="356" stroke="#1a1a1a" stroke-width="1" marker-end="url(#arrow)"/>

<!-- RESOURCES -->
<line x1="35" y1="395" x2="660" y2="395" stroke="#ccc" stroke-width="0.5" stroke-dasharray="4 3"/>
<text font-size="11" fill="#777" x="35" y="409">lexical resources → Stage 2 fetch node (all resources processed uniformly)</text>
<text font-size="11" fill="#999" x="35" y="423">◆ filter / gate</text>
</svg>
