<?xml version="1.0" encoding="UTF-8" standalone="no"?>
<!DOCTYPE svg PUBLIC "-//W3C//DTD SVG 1.1//EN"
 "http://www.w3.org/Graphics/SVG/1.1/DTD/svg11.dtd">
<!-- Generated by graphviz version 2.43.0 (0)
 -->
<!-- Title: stage4 Pages: 1 -->
<svg width="374pt" height="354pt"
 viewBox="0.00 0.00 373.95 353.80" xmlns="http://www.w3.org/2000/svg" xmlns:xlink="http://www.w3.org/1999/xlink">
<g id="graph0" class="graph" transform="scale(1 1) rotate(0) translate(14.4 339.4)">
<title>stage4</title>
<polygon fill="white" stroke="transparent" points="-14.4,14.4 -14.4,-339.4 359.55,-339.4 359.55,14.4 -14.4,14.4"/>
<!-- l1 -->
<g id="node1" class="node">
<title>l1</title>
<ellipse fill="#1a1a1a" stroke="black" stroke-width="0" cx="82.15" cy="-163.5" rx="18" ry="18"/>
<text text-anchor="middle" x="82.15" y="-160.1" font-family="Liberation Sans" font-size="13.00" fill="white">l₁</text>
</g>
<!-- l2 -->
<g id="node2" class="node">
<title>l2</title>
<ellipse fill="#1a1a1a" stroke="black" stroke-width="0" cx="82.15" cy="-60.5" rx="18" ry="18"/>
<text text-anchor="middle" x="82.15" y="-57.1" font-family="Liberation Sans" font-size="13.00" fill="white">l₂</text>
</g>
<!-- l1&#45;&gt;l2 -->
<g id="edge13" class="edge">
<title>l1&#45;&gt;l2</title>
<path fill="none" stroke="#1a1a1a" stroke-width="4" d="M82.15,-145.26C82.15,-123.04 82.15,-100.82 82.15,-78.61"/>
<text text-anchor="middle" x="63.15" y="-104.73" font-family="Liberation Sans" font-size="9.00" fill="#333333">strong</text>
</g>
<!-- l3 -->
<g id="node3" class="node">
<title>l3</title>
<ellipse fill="#1a1a1a" stroke="black" stroke-width="0" cx="82.15" cy="-268.5" rx="18" ry="18"/>
<text text-anchor="middle" x="82.15" y="-265.1" font-family="Liberation Sans" font-size="13.00" fill="white">l₃</text>
</g>
<!-- l1&#45;&gt;l3 -->
<g id="edge14" class="edge">
<title>l1&#45;&gt;l3</title>
<path fill="none" stroke="#555555" stroke-width="2" d="M82.15,-181.55C82.15,-204.53 82.15,-227.51 82.15,-250.5"/>
<text text-anchor="middle" x="59.15" y="-208.82" font-family="Liberation Sans" font-size="9.00" fill="#666666">medium</text>
</g>
<!-- s1 -->
<g id="node5" class="node">
<title>s1</title>
<ellipse fill="#e0e0e0" stroke="black" stroke-width="0" cx="330.65" cy="-105.5" rx="14.5" ry="14.5"/>
<text text-anchor="middle" x="330.65" y="-102.7" font-family="Liberation Sans" font-size="11.00" fill="#aaaaaa">s₁</text>
</g>
<!-- l1&#45;&gt;s1 -->
<g id="edge3" class="edge">
<title>l1&#45;&gt;s1</title>
<path fill="none" stroke="#dddddd" stroke-width="2" d="M100.09,-159.51C146.43,-148.61 274.57,-118.46 316.31,-108.64"/>
</g>
<!-- s2 -->
<g id="node6" class="node">
<title>s2</title>
<ellipse fill="#e0e0e0" stroke="black" stroke-width="0" cx="330.65" cy="-225.5" rx="14.5" ry="14.5"/>
<text text-anchor="middle" x="330.65" y="-222.7" font-family="Liberation Sans" font-size="11.00" fill="#aaaaaa">s₂</text>
</g>
<!-- l1&#45;&gt;s2 -->
<g id="edge4" class="edge">
<title>l1&#45;&gt;s2</title>
<path fill="none" stroke="#dddddd" stroke-width="1.5" d="M99.7,-167.66C145.69,-179.23 274.33,-211.59 316.25,-222.13"/>
</g>
<!-- s4 -->
<g id="node8" class="node">
<title>s4</title>
<ellipse fill="#eeeeee" stroke="black" stroke-width="0" cx="330.65" cy="-163.5" rx="11" ry="11"/>
<text text-anchor="middle" x="330.65" y="-161" font-family="Liberation Sans" font-size="10.00" fill="#cccccc">s₄</text>
</g>
<!-- l1&#45;&gt;s4 -->
<g id="edge5" class="edge">
<title>l1&#45;&gt;s4</title>
<path fill="none" stroke="#eeeeee" stroke-width="0.8" d="M100.48,-163.5C148.37,-163.5 281.45,-163.5 319.42,-163.5"/>
</g>
<!-- l2&#45;&gt;l3 -->
<g id="edge15" class="edge">
<title>l2&#45;&gt;l3</title>
<path fill="none" stroke="#bbbbbb" stroke-width="0.8" d="M69.54,-73.58C55.44,-89.22 33.42,-116.88 24.65,-145.5 11.73,-187.65 48.36,-233.85 69.05,-255.7"/>
<text text-anchor="middle" x="11" y="-159.25" font-family="Liberation Sans" font-size="9.00" fill="#aaaaaa">weak</text>
</g>
<!-- proj -->
<g id="node4" class="node">
<title>proj</title>
<text text-anchor="middle" x="208.15" y="-102" font-family="Liberation Sans" font-size="10.00" fill="#aaaaaa">← project</text>
</g>
<!-- l2&#45;&gt;proj -->
<!-- l2&#45;&gt;s1 -->
<g id="edge6" class="edge">
<title>l2&#45;&gt;s1</title>
<path fill="none" stroke="#dddddd" stroke-width="1.5" d="M100.09,-63.59C146.43,-72.05 274.57,-95.45 316.31,-103.07"/>
</g>
<!-- s3 -->
<g id="node7" class="node">
<title>s3</title>
<ellipse fill="#e8e8e8" stroke="black" stroke-width="0" cx="330.65" cy="-45.5" rx="12" ry="12"/>
<text text-anchor="middle" x="330.65" y="-43" font-family="Liberation Sans" font-size="10.00" fill="#bbbbbb">s₃</text>
</g>
<!-- l2&#45;&gt;s3 -->
<g id="edge7" class="edge">
<title>l2&#45;&gt;s3</title>
<path fill="none" stroke="#e0e0e0" stroke-width="1.2" d="M100.48,-59.45C148.04,-56.55 279.63,-48.54 318.62,-46.17"/>
</g>
<!-- s5 -->
<g id="node9" class="node">
<title>s5</title>
<ellipse fill="#f2f2f2" stroke="black" stroke-width="0" cx="330.65" cy="-9.5" rx="9.5" ry="9.5"/>
<text text-anchor="middle" x="330.65" y="-7" font-family="Liberation Sans" font-size="10.00" fill="#cccccc">s₅</text>
</g>
<!-- l2&#45;&gt;s5 -->
<g id="edge8" class="edge">
<title>l2&#45;&gt;s5</title>
<path fill="none" stroke="#eeeeee" stroke-width="0.6" d="M100.09,-56.99C148.38,-47 285.55,-18.62 321.13,-11.26"/>
</g>
<!-- l3&#45;&gt;s2 -->
<g id="edge9" class="edge">
<title>l3&#45;&gt;s2</title>
<path fill="none" stroke="#e0e0e0" stroke-width="1.2" d="M100.09,-265.54C146.43,-257.46 274.57,-235.11 316.31,-227.83"/>
</g>
<!-- l3&#45;&gt;s4 -->
<g id="edge10" class="edge">
<title>l3&#45;&gt;s4</title>
<path fill="none" stroke="#eeeeee" stroke-width="0.8" d="M98.94,-261.77C145.69,-241.86 282.47,-183.59 320.02,-167.6"/>
</g>
<!-- s6 -->
<g id="node10" class="node">
<title>s6</title>
<ellipse fill="#f2f2f2" stroke="black" stroke-width="0" cx="330.65" cy="-315.5" rx="9.5" ry="9.5"/>
<text text-anchor="middle" x="330.65" y="-313" font-family="Liberation Sans" font-size="10.00" fill="#cccccc">s₆</text>
</g>
<!-- l3&#45;&gt;s6 -->
<g id="edge11" class="edge">
<title>l3&#45;&gt;s6</title>
<path fill="none" stroke="#eeeeee" stroke-width="0.6" d="M100.09,-271.73C148.38,-280.94 285.55,-307.09 321.13,-313.88"/>
</g>
<!-- s7 -->
<g id="node11" class="node">
<title>s7</title>
<ellipse fill="#f6f6f6" stroke="black" stroke-width="0" cx="330.65" cy="-283.5" rx="8" ry="8"/>
<text text-anchor="middle" x="330.65" y="-281" font-family="Liberation Sans" font-size="10.00" fill="#dddddd">s₇</text>
</g>
<!-- l3&#45;&gt;s7 -->
<g id="edge12" class="edge">
<title>l3&#45;&gt;s7</title>
<path fill="none" stroke="#f0f0f0" stroke-width="0.5" d="M100.48,-269.55C149.79,-272.56 289.45,-281.05 322.55,-283.07"/>
</g>
<!-- proj&#45;&gt;s4 -->
</g>
</svg>
