<?xml version="1.0" encoding="UTF-8" standalone="no"?>
<!DOCTYPE svg PUBLIC "-//W3C//DTD SVG 1.1//EN"
 "http://www.w3.org/Graphics/SVG/1.1/DTD/svg11.dtd">
<!-- Generated by graphviz version 2.43.0 (0)
 -->
<!-- Title: isotopy Pages: 1 -->
<svg width="1188pt" height="991pt"
 viewBox="0.00 0.00 1188.00 991.00" xmlns="http://www.w3.org/2000/svg" xmlns:xlink="http://www.w3.org/1999/xlink">
<g id="graph0" class="graph" transform="scale(1 1) rotate(0) translate(36 955)">
<title>isotopy</title>
<polygon fill="white" stroke="transparent" points="-36,36 -36,-955 1152,-955 1152,36 -36,36"/>
<!-- alone&#45;&#45;simple -->
<g id="edge1" class="edge">
<title>alone&#45;&#45;simple</title>
<path fill="none" stroke="#aaaaaa" stroke-width="0.8" d="M417.11,-229.73C425.88,-228.42 436.16,-226.89 444.95,-225.57"/>
</g>
<!-- autumn&#45;&#45;day -->
<g id="edge2" class="edge">
<title>autumn&#45;&#45;day</title>
<path fill="none" stroke="#aaaaaa" stroke-width="0.8" d="M812.87,-663.28C834.59,-661.53 866.38,-658.96 888.09,-657.2"/>
</g>
<!-- autumn&#45;&#45;decay -->
<g id="edge3" class="edge">
<title>autumn&#45;&#45;decay</title>
<path fill="none" stroke="#aaaaaa" stroke-width="0.8" d="M772.05,-682.84C749.44,-706.61 709.38,-748.73 686.81,-772.45"/>
</g>
<!-- autumn&#45;&#45;evening -->
<g id="edge4" class="edge">
<title>autumn&#45;&#45;evening</title>
<path fill="none" stroke="#aaaaaa" stroke-width="0.8" d="M793.76,-688.8C797.74,-707.75 803.27,-734.06 807.01,-751.87"/>
</g>
<!-- autumn&#45;&#45;lapse -->
<g id="edge5" class="edge">
<title>autumn&#45;&#45;lapse</title>
<path fill="none" stroke="#aaaaaa" stroke-width="0.8" d="M764.78,-661.65C734.98,-657.21 684.44,-649.69 654.65,-645.25"/>
</g>
<!-- autumn&#45;&#45;low -->
<g id="edge6" class="edge">
<title>autumn&#45;&#45;low</title>
<path fill="none" stroke="#aaaaaa" stroke-width="0.8" d="M800.6,-644.22C811.02,-625.66 826.05,-598.89 835.85,-581.43"/>
</g>
<!-- autumn&#45;&#45;pass -->
<g id="edge7" class="edge">
<title>autumn&#45;&#45;pass</title>
<path fill="none" stroke="#aaaaaa" stroke-width="0.8" d="M779.21,-643.11C766.21,-613.12 743.22,-560.08 731.01,-531.92"/>
</g>
<!-- autumn&#45;&#45;year -->
<g id="edge8" class="edge">
<title>autumn&#45;&#45;year</title>
<path fill="none" stroke="#aaaaaa" stroke-width="0.8" d="M807.89,-679.84C824.26,-692.37 847.72,-710.32 864.07,-722.84"/>
</g>
<!-- bitter&#45;&#45;feeling -->
<g id="edge9" class="edge">
<title>bitter&#45;&#45;feeling</title>
<path fill="none" stroke="#aaaaaa" stroke-width="0.8" d="M78.58,-162.25C89.26,-168.28 102.12,-175.55 112.3,-181.3"/>
</g>
<!-- bitter&#45;&#45;stern -->
<g id="edge10" class="edge">
<title>bitter&#45;&#45;stern</title>
<path fill="none" stroke="#aaaaaa" stroke-width="0.8" d="M54.92,-126.44C53.9,-117.44 52.74,-107.31 51.76,-98.68"/>
</g>
<!-- bleak&#45;&#45;iciness -->
<g id="edge11" class="edge">
<title>bleak&#45;&#45;iciness</title>
<path fill="none" stroke="#aaaaaa" stroke-width="0.8" d="M591.11,-548.73C599.88,-547.42 610.16,-545.89 618.95,-544.57"/>
</g>
<!-- building&#45;&#45;window -->
<g id="edge12" class="edge">
<title>building&#45;&#45;window</title>
<path fill="none" stroke="#aaaaaa" stroke-width="0.8" d="M562.11,-171.73C570.88,-170.42 581.16,-168.89 589.95,-167.57"/>
</g>
<!-- cloud&#45;&#45;day -->
<g id="edge13" class="edge">
<title>cloud&#45;&#45;day</title>
<path fill="none" stroke="#aaaaaa" stroke-width="0.8" d="M986.59,-545.6C970.09,-569.89 942.39,-610.66 925.82,-635.05"/>
</g>
<!-- cloud&#45;&#45;sublime -->
<g id="edge14" class="edge">
<title>cloud&#45;&#45;sublime</title>
<path fill="none" stroke="#aaaaaa" stroke-width="0.8" d="M1024.33,-526.11C1040.18,-526.43 1060.66,-526.85 1075.66,-527.15"/>
</g>
<!-- country&#45;&#45;dream -->
<g id="edge15" class="edge">
<title>country&#45;&#45;dream</title>
<path fill="none" stroke="#aaaaaa" stroke-width="0.8" d="M330,-771.56C366.68,-770.68 444.35,-768.79 483.82,-767.84"/>
</g>
<!-- dark&#45;&#45;shade -->
<g id="edge16" class="edge">
<title>dark&#45;&#45;shade</title>
<path fill="none" stroke="#aaaaaa" stroke-width="0.8" d="M236.68,-180.3C259.77,-168.22 296.41,-149.06 319.54,-136.96"/>
</g>
<!-- dark&#45;&#45;soul -->
<g id="edge17" class="edge">
<title>dark&#45;&#45;soul</title>
<path fill="none" stroke="#aaaaaa" stroke-width="0.8" d="M220.22,-214.97C227.69,-251.26 241.94,-320.45 249.41,-356.74"/>
</g>
<!-- dark&#45;&#45;white -->
<g id="edge18" class="edge">
<title>dark&#45;&#45;white</title>
<path fill="none" stroke="#aaaaaa" stroke-width="0.8" d="M212.53,-167.38C210.39,-149.31 207.5,-124.84 205.48,-107.8"/>
</g>
<!-- day&#45;&#45;depression -->
<g id="edge19" class="edge">
<title>day&#45;&#45;depression</title>
<path fill="none" stroke="#aaaaaa" stroke-width="0.8" d="M935.68,-660.22C963.41,-666.05 1008.96,-675.62 1035,-681.09"/>
</g>
<!-- day&#45;&#45;evening -->
<g id="edge20" class="edge">
<title>day&#45;&#45;evening</title>
<path fill="none" stroke="#aaaaaa" stroke-width="0.8" d="M896.31,-673.42C876.57,-696.14 843.1,-734.67 824.54,-756.03"/>
</g>
<!-- day&#45;&#45;low -->
<g id="edge21" class="edge">
<title>day&#45;&#45;low</title>
<path fill="none" stroke="#aaaaaa" stroke-width="0.8" d="M897.69,-635.42C885.72,-618.93 868.89,-595.74 857.66,-580.27"/>
</g>
<!-- day&#45;&#45;year -->
<g id="edge22" class="edge">
<title>day&#45;&#45;year</title>
<path fill="none" stroke="#aaaaaa" stroke-width="0.8" d="M904.02,-678.15C900.01,-689.55 895.17,-703.29 891.16,-714.67"/>
</g>
<!-- decay&#45;&#45;natural -->
<g id="edge23" class="edge">
<title>decay&#45;&#45;natural</title>
<path fill="none" stroke="#aaaaaa" stroke-width="0.8" d="M671.24,-814.14C672.12,-833.56 673.34,-860.51 674.16,-878.76"/>
</g>
<!-- domain&#45;&#45;landscape -->
<g id="edge24" class="edge">
<title>domain&#45;&#45;landscape</title>
<path fill="none" stroke="#aaaaaa" stroke-width="0.8" d="M127.11,-403.73C135.88,-402.42 146.16,-400.89 154.95,-399.57"/>
</g>
<!-- draw&#45;&#45;length -->
<g id="edge25" class="edge">
<title>draw&#45;&#45;length</title>
<path fill="none" stroke="#aaaaaa" stroke-width="0.8" d="M795.26,-250.55C820.43,-257.51 860.19,-268.51 883.82,-275.04"/>
</g>
<!-- draw&#45;&#45;trunk -->
<g id="edge26" class="edge">
<title>draw&#45;&#45;trunk</title>
<path fill="none" stroke="#aaaaaa" stroke-width="0.8" d="M777.51,-267.73C779.99,-278.55 782.92,-291.34 785.4,-302.16"/>
</g>
<!-- dream&#45;&#45;scene -->
<g id="edge27" class="edge">
<title>dream&#45;&#45;scene</title>
<path fill="none" stroke="#aaaaaa" stroke-width="0.8" d="M490.97,-749.63C479.16,-737.35 463.46,-721.04 451.67,-708.78"/>
</g>
<!-- dreariness&#45;&#45;dreary -->
<g id="edge28" class="edge">
<title>dreariness&#45;&#45;dreary</title>
<path fill="none" stroke="#aaaaaa" stroke-width="0.8" d="M620.11,-55.73C628.88,-54.42 639.16,-52.89 647.95,-51.57"/>
</g>
<!-- dropping&#45;&#45;sink -->
<g id="edge29" class="edge">
<title>dropping&#45;&#45;sink</title>
<path fill="none" stroke="#aaaaaa" stroke-width="0.8" d="M98.11,-606.73C106.88,-605.42 117.16,-603.89 125.95,-602.57"/>
</g>
<!-- evening&#45;&#45;year -->
<g id="edge30" class="edge">
<title>evening&#45;&#45;year</title>
<path fill="none" stroke="#aaaaaa" stroke-width="0.8" d="M829.3,-762.88C839.05,-758.27 851.13,-752.56 861.38,-747.72"/>
</g>
<!-- eye&#45;&#45;heart -->
<g id="edge31" class="edge">
<title>eye&#45;&#45;heart</title>
<path fill="none" stroke="#aaaaaa" stroke-width="0.8" d="M374.07,-420.24C397.27,-447 440.26,-496.59 463.46,-523.36"/>
</g>
<!-- eye&#45;&#45;life -->
<g id="edge32" class="edge">
<title>eye&#45;&#45;life</title>
<path fill="none" stroke="#aaaaaa" stroke-width="0.8" d="M360.84,-426.26C362.28,-439.84 364.08,-456.71 365.53,-470.26"/>
</g>
<!-- eye&#45;&#45;look -->
<g id="edge33" class="edge">
<title>eye&#45;&#45;look</title>
<path fill="none" stroke="#aaaaaa" stroke-width="0.8" d="M351.86,-378.79C341.67,-341.84 321.88,-269.99 311.68,-232.99"/>
</g>
<!-- first&#45;&#45;heaven -->
<g id="edge34" class="edge">
<title>first&#45;&#45;heaven</title>
<path fill="none" stroke="#aaaaaa" stroke-width="0.8" d="M98,-684.56C134.68,-683.68 212.35,-681.79 251.82,-680.84"/>
</g>
<!-- gloom&#45;&#45;shade -->
<g id="edge35" class="edge">
<title>gloom&#45;&#45;shade</title>
<path fill="none" stroke="#aaaaaa" stroke-width="0.8" d="M487.74,-108.34C456.87,-112 397.96,-119 364.92,-122.92"/>
</g>
<!-- hang&#45;&#45;life -->
<g id="edge36" class="edge">
<title>hang&#45;&#45;life</title>
<path fill="none" stroke="#aaaaaa" stroke-width="0.8" d="M367.3,-637.55C367.47,-607.51 367.78,-550.83 367.96,-518.53"/>
</g>
<!-- heart&#45;&#45;life -->
<g id="edge37" class="edge">
<title>heart&#45;&#45;life</title>
<path fill="none" stroke="#aaaaaa" stroke-width="0.8" d="M457.06,-532.17C437.66,-523.93 409.67,-512.04 390.29,-503.81"/>
</g>
<!-- heart&#45;&#45;sentiment -->
<g id="edge38" class="edge">
<title>heart&#45;&#45;sentiment</title>
<path fill="none" stroke="#aaaaaa" stroke-width="0.8" d="M485.88,-564.8C488.59,-574.33 491.69,-585.25 494.27,-594.34"/>
</g>
<!-- heaven&#45;&#45;house -->
<g id="edge39" class="edge">
<title>heaven&#45;&#45;house</title>
<path fill="none" stroke="#aaaaaa" stroke-width="0.8" d="M258.97,-662.63C247.16,-650.35 231.46,-634.04 219.67,-621.78"/>
</g>
<!-- hideous&#45;&#45;terrible -->
<g id="edge40" class="edge">
<title>hideous&#45;&#45;terrible</title>
<path fill="none" stroke="#aaaaaa" stroke-width="0.8" d="M98.11,-519.73C106.88,-518.42 117.16,-516.89 125.95,-515.57"/>
</g>
<!-- house&#45;&#45;wall -->
<g id="edge41" class="edge">
<title>house&#45;&#45;wall</title>
<path fill="none" stroke="#aaaaaa" stroke-width="0.8" d="M201.7,-628.26C199.88,-667.88 196.29,-746.2 194.6,-783.15"/>
</g>
<!-- image&#45;&#45;imagination -->
<g id="edge42" class="edge">
<title>image&#45;&#45;imagination</title>
<path fill="none" stroke="#aaaaaa" stroke-width="0.8" d="M698.36,-145.08C677.21,-167.07 637.26,-208.61 614.61,-232.16"/>
</g>
<!-- imagination&#45;&#45;know -->
<g id="edge43" class="edge">
<title>imagination&#45;&#45;know</title>
<path fill="none" stroke="#aaaaaa" stroke-width="0.8" d="M615.71,-266.28C629.68,-279.33 648.86,-297.25 661.93,-309.47"/>
</g>
<!-- imagination&#45;&#45;sense -->
<g id="edge44" class="edge">
<title>imagination&#45;&#45;sense</title>
<path fill="none" stroke="#aaaaaa" stroke-width="0.8" d="M587.74,-271.43C578.62,-291.14 565.27,-319.99 556.15,-339.69"/>
</g>
<!-- know&#45;&#45;sense -->
<g id="edge45" class="edge">
<title>know&#45;&#45;sense</title>
<path fill="none" stroke="#aaaaaa" stroke-width="0.8" d="M657.3,-328.79C633.91,-335.66 594.47,-347.25 569.38,-354.63"/>
</g>
<!-- lapse&#45;&#45;pause -->
<g id="edge46" class="edge">
<title>lapse&#45;&#45;pause</title>
<path fill="none" stroke="#aaaaaa" stroke-width="0.8" d="M610.08,-654.78C594.51,-664.7 573.39,-678.14 558.8,-687.43"/>
</g>
<!-- life&#45;&#45;mind -->
<g id="edge47" class="edge">
<title>life&#45;&#45;mind</title>
<path fill="none" stroke="#aaaaaa" stroke-width="0.8" d="M378.87,-472.49C397.01,-435.66 433.29,-361.98 450.05,-327.94"/>
</g>
<!-- life&#45;&#45;sensation -->
<g id="edge48" class="edge">
<title>life&#45;&#45;sensation</title>
<path fill="none" stroke="#aaaaaa" stroke-width="0.8" d="M392.42,-494.44C433.36,-494.56 515.26,-494.78 553.09,-494.89"/>
</g>
<!-- life&#45;&#45;sense -->
<g id="edge49" class="edge">
<title>life&#45;&#45;sense</title>
<path fill="none" stroke="#aaaaaa" stroke-width="0.8" d="M387.48,-479.9C421.72,-454.33 492.49,-401.48 526.71,-375.93"/>
</g>
<!-- life&#45;&#45;sentiment -->
<g id="edge50" class="edge">
<title>life&#45;&#45;sentiment</title>
<path fill="none" stroke="#aaaaaa" stroke-width="0.8" d="M386.13,-510.71C412.32,-534.44 460.43,-578.01 484.79,-600.07"/>
</g>
<!-- life&#45;&#45;soul -->
<g id="edge51" class="edge">
<title>life&#45;&#45;soul</title>
<path fill="none" stroke="#aaaaaa" stroke-width="0.8" d="M350.81,-477.05C329.28,-455.47 292.76,-418.86 271.33,-397.39"/>
</g>
<!-- life&#45;&#45;spirit -->
<g id="edge52" class="edge">
<title>life&#45;&#45;spirit</title>
<path fill="none" stroke="#aaaaaa" stroke-width="0.8" d="M344.27,-489.64C315.77,-483.98 268.58,-474.61 241.87,-469.3"/>
</g>
<!-- life&#45;&#45;tract -->
<g id="edge53" class="edge">
<title>life&#45;&#45;tract</title>
<path fill="none" stroke="#aaaaaa" stroke-width="0.8" d="M351.94,-512.55C334.59,-532.09 307.31,-562.78 291.11,-581.01"/>
</g>
<!-- look&#45;&#45;say -->
<g id="edge54" class="edge">
<title>look&#45;&#45;say</title>
<path fill="none" stroke="#aaaaaa" stroke-width="0.8" d="M282.19,-216.62C248.96,-226.57 187.98,-244.83 154.69,-254.79"/>
</g>
<!-- look&#45;&#45;think -->
<g id="edge55" class="edge">
<title>look&#45;&#45;think</title>
<path fill="none" stroke="#aaaaaa" stroke-width="0.8" d="M307.4,-185.64C310.75,-147.79 317.2,-75.04 320.32,-39.8"/>
</g>
<!-- mere&#45;&#45;trunk -->
<g id="edge56" class="edge">
<title>mere&#45;&#45;trunk</title>
<path fill="none" stroke="#aaaaaa" stroke-width="0.8" d="M836.59,-212.36C826.94,-236.23 810.23,-277.58 799.89,-303.18"/>
</g>
<!-- mind&#45;&#45;sense -->
<g id="edge57" class="edge">
<title>mind&#45;&#45;sense</title>
<path fill="none" stroke="#aaaaaa" stroke-width="0.8" d="M476.13,-320.12C490.22,-328.45 510.2,-340.27 525.2,-349.13"/>
</g>
<!-- pervade&#45;&#45;year -->
<g id="edge58" class="edge">
<title>pervade&#45;&#45;year</title>
<path fill="none" stroke="#aaaaaa" stroke-width="0.8" d="M950.69,-823.77C936.44,-805.56 913.17,-775.82 898.01,-756.44"/>
</g>
<!-- rank&#45;&#45;sedge -->
<g id="edge59" class="edge">
<title>rank&#45;&#45;sedge</title>
<path fill="none" stroke="#aaaaaa" stroke-width="0.8" d="M417.11,-26.73C425.88,-25.42 436.16,-23.89 444.95,-22.57"/>
</g>
<!-- say&#45;&#45;utter -->
<g id="edge60" class="edge">
<title>say&#45;&#45;utter</title>
<path fill="none" stroke="#aaaaaa" stroke-width="0.8" d="M115.62,-279.93C93.67,-305.03 54.5,-349.84 33.94,-373.35"/>
</g>
<!-- scene&#45;&#45;view -->
<g id="edge61" class="edge">
<title>scene&#45;&#45;view</title>
<path fill="none" stroke="#aaaaaa" stroke-width="0.8" d="M433.7,-715.26C431.88,-754.88 428.29,-833.2 426.6,-870.15"/>
</g>
<!-- sensation&#45;&#45;sense -->
<g id="edge62" class="edge">
<title>sensation&#45;&#45;sense</title>
<path fill="none" stroke="#aaaaaa" stroke-width="0.8" d="M569.11,-475.25C564.26,-451.32 556.09,-410.97 550.9,-385.31"/>
</g>
<!-- shade&#45;&#45;white -->
<g id="edge63" class="edge">
<title>shade&#45;&#45;white</title>
<path fill="none" stroke="#aaaaaa" stroke-width="0.8" d="M317.56,-119.31C290.83,-111.93 247.56,-99.98 222.58,-93.09"/>
</g>
<!-- soul&#45;&#45;spirit -->
<g id="edge64" class="edge">
<title>soul&#45;&#45;spirit</title>
<path fill="none" stroke="#aaaaaa" stroke-width="0.8" d="M245.56,-403.06C240.38,-416.64 233.88,-433.67 229,-446.48"/>
</g>
<!-- tree&#45;&#45;trunk -->
<g id="edge65" class="edge">
<title>tree&#45;&#45;trunk</title>
<path fill="none" stroke="#aaaaaa" stroke-width="0.8" d="M833.93,-416.54C824.9,-397.52 810.85,-367.94 801.26,-347.74"/>
</g>
<!-- trunk&#45;&#45;veil -->
<g id="edge66" class="edge">
<title>trunk&#45;&#45;veil</title>
<path fill="none" stroke="#aaaaaa" stroke-width="0.8" d="M769.73,-337.96C750.49,-349.16 722.35,-365.54 704.29,-376.06"/>
</g>
<!-- alone -->
<g id="node1" class="node">
<title>alone</title>
<ellipse fill="#4a6b1a" stroke="black" stroke-width="0" cx="397.07" cy="-232.73" rx="20" ry="20"/>
<text text-anchor="middle" x="397.07" y="-230.53" font-family="Liberation Sans" font-size="9.00" fill="white">alone</text>
</g>
<!-- autumn -->
<g id="node2" class="node">
<title>autumn</title>
<ellipse fill="#1a1a1a" stroke="#888888" stroke-width="1.5" cx="788.8" cy="-665.23" rx="20" ry="20"/>
<ellipse fill="none" stroke="#888888" stroke-width="1.5" cx="788.8" cy="-665.23" rx="24" ry="24"/>
<text text-anchor="middle" x="788.8" y="-663.03" font-family="Liberation Sans" font-size="9.00" fill="white">autumn</text>
</g>
<!-- bitter -->
<g id="node3" class="node">
<title>bitter</title>
<ellipse fill="#1a1a1a" stroke="#888888" stroke-width="1.5" cx="57.65" cy="-150.42" rx="20" ry="20"/>
<ellipse fill="none" stroke="#888888" stroke-width="1.5" cx="57.65" cy="-150.42" rx="24" ry="24"/>
<text text-anchor="middle" x="57.65" y="-148.22" font-family="Liberation Sans" font-size="9.00" fill="white">bitter</text>
</g>
<!-- bleak -->
<g id="node4" class="node">
<title>bleak</title>
<ellipse fill="#1a4a6b" stroke="black" stroke-width="0" cx="571.07" cy="-551.73" rx="20" ry="20"/>
<text text-anchor="middle" x="571.07" y="-549.53" font-family="Liberation Sans" font-size="9.00" fill="white">bleak</text>
</g>
<!-- building -->
<g id="node5" class="node">
<title>building</title>
<ellipse fill="#6b1a4a" stroke="black" stroke-width="0" cx="542.07" cy="-174.73" rx="20" ry="20"/>
<text text-anchor="middle" x="542.07" y="-172.53" font-family="Liberation Sans" font-size="9.00" fill="white">building</text>
</g>
<!-- cloud -->
<g id="node6" class="node">
<title>cloud</title>
<ellipse fill="#1a1a1a" stroke="#888888" stroke-width="1.5" cx="1000.16" cy="-525.63" rx="20" ry="20"/>
<ellipse fill="none" stroke="#888888" stroke-width="1.5" cx="1000.16" cy="-525.63" rx="24" ry="24"/>
<text text-anchor="middle" x="1000.16" y="-523.43" font-family="Liberation Sans" font-size="9.00" fill="white">cloud</text>
</g>
<!-- country -->
<g id="node7" class="node">
<title>country</title>
<ellipse fill="#6b1a1a" stroke="black" stroke-width="0" cx="309.93" cy="-772.05" rx="20" ry="20"/>
<text text-anchor="middle" x="309.93" y="-769.85" font-family="Liberation Sans" font-size="9.00" fill="white">country</text>
</g>
<!-- dark -->
<g id="node8" class="node">
<title>dark</title>
<ellipse fill="#1a1a1a" stroke="#888888" stroke-width="1.5" cx="215.37" cy="-191.44" rx="20" ry="20"/>
<ellipse fill="none" stroke="#888888" stroke-width="1.5" cx="215.37" cy="-191.44" rx="24" ry="24"/>
<text text-anchor="middle" x="215.37" y="-189.24" font-family="Liberation Sans" font-size="9.00" fill="white">dark</text>
</g>
<!-- day -->
<g id="node9" class="node">
<title>day</title>
<ellipse fill="#1a1a1a" stroke="#888888" stroke-width="1.5" cx="912.09" cy="-655.26" rx="20" ry="20"/>
<ellipse fill="none" stroke="#888888" stroke-width="1.5" cx="912.09" cy="-655.26" rx="24" ry="24"/>
<text text-anchor="middle" x="912.09" y="-653.06" font-family="Liberation Sans" font-size="9.00" fill="white">day</text>
</g>
<!-- decay -->
<g id="node10" class="node">
<title>decay</title>
<ellipse fill="#1a1a1a" stroke="#888888" stroke-width="1.5" cx="670.15" cy="-789.97" rx="20" ry="20"/>
<ellipse fill="none" stroke="#888888" stroke-width="1.5" cx="670.15" cy="-789.97" rx="24" ry="24"/>
<text text-anchor="middle" x="670.15" y="-787.77" font-family="Liberation Sans" font-size="9.00" fill="white">decay</text>
</g>
<!-- depression -->
<g id="node11" class="node">
<title>depression</title>
<ellipse fill="#5a1a6b" stroke="black" stroke-width="0" cx="1054.94" cy="-685.28" rx="20" ry="20"/>
<text text-anchor="middle" x="1054.94" y="-683.08" font-family="Liberation Sans" font-size="9.00" fill="white">depression</text>
</g>
<!-- domain -->
<g id="node12" class="node">
<title>domain</title>
<ellipse fill="#3a1a6b" stroke="black" stroke-width="0" cx="107.07" cy="-406.73" rx="20" ry="20"/>
<text text-anchor="middle" x="107.07" y="-404.53" font-family="Liberation Sans" font-size="9.00" fill="white">domain</text>
</g>
<!-- draw -->
<g id="node13" class="node">
<title>draw</title>
<ellipse fill="#1a1a1a" stroke="#888888" stroke-width="1.5" cx="772.11" cy="-244.14" rx="20" ry="20"/>
<ellipse fill="none" stroke="#888888" stroke-width="1.5" cx="772.11" cy="-244.14" rx="24" ry="24"/>
<text text-anchor="middle" x="772.11" y="-241.94" font-family="Liberation Sans" font-size="9.00" fill="white">draw</text>
</g>
<!-- dream -->
<g id="node14" class="node">
<title>dream</title>
<ellipse fill="#1a1a1a" stroke="#888888" stroke-width="1.5" cx="507.93" cy="-767.26" rx="20" ry="20"/>
<ellipse fill="none" stroke="#888888" stroke-width="1.5" cx="507.93" cy="-767.26" rx="24" ry="24"/>
<text text-anchor="middle" x="507.93" y="-765.06" font-family="Liberation Sans" font-size="9.00" fill="white">dream</text>
</g>
<!-- dreariness -->
<g id="node15" class="node">
<title>dreariness</title>
<ellipse fill="#6b5a1a" stroke="black" stroke-width="0" cx="600.07" cy="-58.73" rx="20" ry="20"/>
<text text-anchor="middle" x="600.07" y="-56.53" font-family="Liberation Sans" font-size="9.00" fill="white">dreariness</text>
</g>
<!-- dreary -->
<g id="node16" class="node">
<title>dreary</title>
<ellipse fill="#6b5a1a" stroke="black" stroke-width="0" cx="668.08" cy="-48.57" rx="20" ry="20"/>
<text text-anchor="middle" x="668.08" y="-46.37" font-family="Liberation Sans" font-size="9.00" fill="white">dreary</text>
</g>
<!-- dropping -->
<g id="node17" class="node">
<title>dropping</title>
<ellipse fill="#3a6b1a" stroke="black" stroke-width="0" cx="78.07" cy="-609.73" rx="20" ry="20"/>
<text text-anchor="middle" x="78.07" y="-607.53" font-family="Liberation Sans" font-size="9.00" fill="white">dropping</text>
</g>
<!-- evening -->
<g id="node18" class="node">
<title>evening</title>
<ellipse fill="#5a1a6b" stroke="black" stroke-width="0" cx="811.13" cy="-771.46" rx="20" ry="20"/>
<text text-anchor="middle" x="811.13" y="-769.26" font-family="Liberation Sans" font-size="9.00" fill="white">evening</text>
</g>
<!-- eye -->
<g id="node19" class="node">
<title>eye</title>
<ellipse fill="#1a1a1a" stroke="#888888" stroke-width="1.5" cx="358.25" cy="-401.98" rx="20" ry="20"/>
<ellipse fill="none" stroke="#888888" stroke-width="1.5" cx="358.25" cy="-401.98" rx="24" ry="24"/>
<text text-anchor="middle" x="358.25" y="-399.78" font-family="Liberation Sans" font-size="9.00" fill="white">eye</text>
</g>
<!-- feeling -->
<g id="node20" class="node">
<title>feeling</title>
<ellipse fill="#1a5a6b" stroke="black" stroke-width="0" cx="130" cy="-191.3" rx="20" ry="20"/>
<text text-anchor="middle" x="130" y="-189.1" font-family="Liberation Sans" font-size="9.00" fill="white">feeling</text>
</g>
<!-- first -->
<g id="node21" class="node">
<title>first</title>
<ellipse fill="#6b3a1a" stroke="black" stroke-width="0" cx="77.93" cy="-685.05" rx="20" ry="20"/>
<text text-anchor="middle" x="77.93" y="-682.85" font-family="Liberation Sans" font-size="9.00" fill="white">first</text>
</g>
<!-- gloom -->
<g id="node22" class="node">
<title>gloom</title>
<ellipse fill="#1a4a6b" stroke="black" stroke-width="0" cx="507.87" cy="-105.95" rx="20" ry="20"/>
<text text-anchor="middle" x="507.87" y="-103.75" font-family="Liberation Sans" font-size="9.00" fill="white">gloom</text>
</g>
<!-- hang -->
<g id="node23" class="node">
<title>hang</title>
<ellipse fill="#1a4a6b" stroke="black" stroke-width="0" cx="367.19" cy="-657.56" rx="20" ry="20"/>
<text text-anchor="middle" x="367.19" y="-655.36" font-family="Liberation Sans" font-size="9.00" fill="white">hang</text>
</g>
<!-- heart -->
<g id="node24" class="node">
<title>heart</title>
<ellipse fill="#1a1a1a" stroke="#888888" stroke-width="1.5" cx="479.29" cy="-541.62" rx="20" ry="20"/>
<ellipse fill="none" stroke="#888888" stroke-width="1.5" cx="479.29" cy="-541.62" rx="24" ry="24"/>
<text text-anchor="middle" x="479.29" y="-539.42" font-family="Liberation Sans" font-size="9.00" fill="white">heart</text>
</g>
<!-- heaven -->
<g id="node25" class="node">
<title>heaven</title>
<ellipse fill="#1a1a1a" stroke="#888888" stroke-width="1.5" cx="275.93" cy="-680.26" rx="20" ry="20"/>
<ellipse fill="none" stroke="#888888" stroke-width="1.5" cx="275.93" cy="-680.26" rx="24" ry="24"/>
<text text-anchor="middle" x="275.93" y="-678.06" font-family="Liberation Sans" font-size="9.00" fill="white">heaven</text>
</g>
<!-- hideous -->
<g id="node26" class="node">
<title>hideous</title>
<ellipse fill="#1a6b5a" stroke="black" stroke-width="0" cx="78.07" cy="-522.73" rx="20" ry="20"/>
<text text-anchor="middle" x="78.07" y="-520.53" font-family="Liberation Sans" font-size="9.00" fill="white">hideous</text>
</g>
<!-- house -->
<g id="node27" class="node">
<title>house</title>
<ellipse fill="#1a1a1a" stroke="#888888" stroke-width="1.5" cx="202.8" cy="-604.25" rx="20" ry="20"/>
<ellipse fill="none" stroke="#888888" stroke-width="1.5" cx="202.8" cy="-604.25" rx="24" ry="24"/>
<text text-anchor="middle" x="202.8" y="-602.05" font-family="Liberation Sans" font-size="9.00" fill="white">house</text>
</g>
<!-- iciness -->
<g id="node28" class="node">
<title>iciness</title>
<ellipse fill="#1a4a6b" stroke="black" stroke-width="0" cx="639.08" cy="-541.57" rx="20" ry="20"/>
<text text-anchor="middle" x="639.08" y="-539.37" font-family="Liberation Sans" font-size="9.00" fill="white">iciness</text>
</g>
<!-- image -->
<g id="node29" class="node">
<title>image</title>
<ellipse fill="#1a4a6b" stroke="black" stroke-width="0" cx="712.41" cy="-130.47" rx="20" ry="20"/>
<text text-anchor="middle" x="712.41" y="-128.27" font-family="Liberation Sans" font-size="9.00" fill="white">image</text>
</g>
<!-- imagination -->
<g id="node30" class="node">
<title>imagination</title>
<ellipse fill="#1a1a1a" stroke="#888888" stroke-width="1.5" cx="597.84" cy="-249.59" rx="20" ry="20"/>
<ellipse fill="none" stroke="#888888" stroke-width="1.5" cx="597.84" cy="-249.59" rx="24" ry="24"/>
<text text-anchor="middle" x="597.84" y="-247.39" font-family="Liberation Sans" font-size="9.00" fill="white">imagination</text>
</g>
<!-- know -->
<g id="node31" class="node">
<title>know</title>
<ellipse fill="#1a4a6b" stroke="black" stroke-width="0" cx="676.56" cy="-323.13" rx="20" ry="20"/>
<text text-anchor="middle" x="676.56" y="-320.93" font-family="Liberation Sans" font-size="9.00" fill="white">know</text>
</g>
<!-- landscape -->
<g id="node32" class="node">
<title>landscape</title>
<ellipse fill="#3a1a6b" stroke="black" stroke-width="0" cx="175.08" cy="-396.57" rx="20" ry="20"/>
<text text-anchor="middle" x="175.08" y="-394.37" font-family="Liberation Sans" font-size="9.00" fill="white">landscape</text>
</g>
<!-- lapse -->
<g id="node33" class="node">
<title>lapse</title>
<ellipse fill="#1a1a1a" stroke="#888888" stroke-width="1.5" cx="630.67" cy="-641.68" rx="20" ry="20"/>
<ellipse fill="none" stroke="#888888" stroke-width="1.5" cx="630.67" cy="-641.68" rx="24" ry="24"/>
<text text-anchor="middle" x="630.67" y="-639.48" font-family="Liberation Sans" font-size="9.00" fill="white">lapse</text>
</g>
<!-- length -->
<g id="node34" class="node">
<title>length</title>
<ellipse fill="#1a6b3a" stroke="black" stroke-width="0" cx="903.33" cy="-280.44" rx="20" ry="20"/>
<text text-anchor="middle" x="903.33" y="-278.24" font-family="Liberation Sans" font-size="9.00" fill="white">length</text>
</g>
<!-- life -->
<g id="node35" class="node">
<title>life</title>
<ellipse fill="#1a1a1a" stroke="#888888" stroke-width="1.5" cx="368.1" cy="-494.38" rx="20" ry="20"/>
<ellipse fill="none" stroke="#888888" stroke-width="1.5" cx="368.1" cy="-494.38" rx="24" ry="24"/>
<text text-anchor="middle" x="368.1" y="-492.18" font-family="Liberation Sans" font-size="9.00" fill="white">life</text>
</g>
<!-- look -->
<g id="node36" class="node">
<title>look</title>
<ellipse fill="#1a1a1a" stroke="#888888" stroke-width="1.5" cx="305.26" cy="-209.71" rx="20" ry="20"/>
<ellipse fill="none" stroke="#888888" stroke-width="1.5" cx="305.26" cy="-209.71" rx="24" ry="24"/>
<text text-anchor="middle" x="305.26" y="-207.51" font-family="Liberation Sans" font-size="9.00" fill="white">look</text>
</g>
<!-- low -->
<g id="node37" class="node">
<title>low</title>
<ellipse fill="#5a1a6b" stroke="black" stroke-width="0" cx="845.73" cy="-563.83" rx="20" ry="20"/>
<text text-anchor="middle" x="845.73" y="-561.63" font-family="Liberation Sans" font-size="9.00" fill="white">low</text>
</g>
<!-- mere -->
<g id="node38" class="node">
<title>mere</title>
<ellipse fill="#1a6b3a" stroke="black" stroke-width="0" cx="844.11" cy="-193.73" rx="20" ry="20"/>
<text text-anchor="middle" x="844.11" y="-191.53" font-family="Liberation Sans" font-size="9.00" fill="white">mere</text>
</g>
<!-- mind -->
<g id="node39" class="node">
<title>mind</title>
<ellipse fill="#1a4a6b" stroke="black" stroke-width="0" cx="458.91" cy="-309.94" rx="20" ry="20"/>
<text text-anchor="middle" x="458.91" y="-307.74" font-family="Liberation Sans" font-size="9.00" fill="white">mind</text>
</g>
<!-- natural -->
<g id="node40" class="node">
<title>natural</title>
<ellipse fill="#5a1a6b" stroke="black" stroke-width="0" cx="675.07" cy="-898.85" rx="20" ry="20"/>
<text text-anchor="middle" x="675.07" y="-896.65" font-family="Liberation Sans" font-size="9.00" fill="white">natural</text>
</g>
<!-- pass -->
<g id="node41" class="node">
<title>pass</title>
<ellipse fill="#5a1a6b" stroke="black" stroke-width="0" cx="722.87" cy="-513.14" rx="20" ry="20"/>
<text text-anchor="middle" x="722.87" y="-510.94" font-family="Liberation Sans" font-size="9.00" fill="white">pass</text>
</g>
<!-- pause -->
<g id="node42" class="node">
<title>pause</title>
<ellipse fill="#5a1a6b" stroke="black" stroke-width="0" cx="541.9" cy="-698.19" rx="20" ry="20"/>
<text text-anchor="middle" x="541.9" y="-695.99" font-family="Liberation Sans" font-size="9.00" fill="white">pause</text>
</g>
<!-- pervade -->
<g id="node43" class="node">
<title>pervade</title>
<ellipse fill="#5a1a6b" stroke="black" stroke-width="0" cx="963.2" cy="-839.75" rx="20" ry="20"/>
<text text-anchor="middle" x="963.2" y="-837.55" font-family="Liberation Sans" font-size="9.00" fill="white">pervade</text>
</g>
<!-- rank -->
<g id="node44" class="node">
<title>rank</title>
<ellipse fill="#5a1a6b" stroke="black" stroke-width="0" cx="397.07" cy="-29.73" rx="20" ry="20"/>
<text text-anchor="middle" x="397.07" y="-27.53" font-family="Liberation Sans" font-size="9.00" fill="white">rank</text>
</g>
<!-- say -->
<g id="node45" class="node">
<title>say</title>
<ellipse fill="#1a1a1a" stroke="#888888" stroke-width="1.5" cx="131.53" cy="-261.73" rx="20" ry="20"/>
<ellipse fill="none" stroke="#888888" stroke-width="1.5" cx="131.53" cy="-261.73" rx="24" ry="24"/>
<text text-anchor="middle" x="131.53" y="-259.53" font-family="Liberation Sans" font-size="9.00" fill="white">say</text>
</g>
<!-- scene -->
<g id="node46" class="node">
<title>scene</title>
<ellipse fill="#1a1a1a" stroke="#888888" stroke-width="1.5" cx="434.8" cy="-691.25" rx="20" ry="20"/>
<ellipse fill="none" stroke="#888888" stroke-width="1.5" cx="434.8" cy="-691.25" rx="24" ry="24"/>
<text text-anchor="middle" x="434.8" y="-689.05" font-family="Liberation Sans" font-size="9.00" fill="white">scene</text>
</g>
<!-- sedge -->
<g id="node47" class="node">
<title>sedge</title>
<ellipse fill="#5a1a6b" stroke="black" stroke-width="0" cx="465.08" cy="-19.57" rx="20" ry="20"/>
<text text-anchor="middle" x="465.08" y="-17.37" font-family="Liberation Sans" font-size="9.00" fill="white">sedge</text>
</g>
<!-- sensation -->
<g id="node48" class="node">
<title>sensation</title>
<ellipse fill="#1a4a6b" stroke="black" stroke-width="0" cx="573.09" cy="-494.94" rx="20" ry="20"/>
<text text-anchor="middle" x="573.09" y="-492.74" font-family="Liberation Sans" font-size="9.00" fill="white">sensation</text>
</g>
<!-- sense -->
<g id="node49" class="node">
<title>sense</title>
<ellipse fill="#1a1a1a" stroke="#888888" stroke-width="1.5" cx="546.07" cy="-361.47" rx="20" ry="20"/>
<ellipse fill="none" stroke="#888888" stroke-width="1.5" cx="546.07" cy="-361.47" rx="24" ry="24"/>
<text text-anchor="middle" x="546.07" y="-359.27" font-family="Liberation Sans" font-size="9.00" fill="white">sense</text>
</g>
<!-- sentiment -->
<g id="node50" class="node">
<title>sentiment</title>
<ellipse fill="#1a4a6b" stroke="black" stroke-width="0" cx="499.75" cy="-613.62" rx="20" ry="20"/>
<text text-anchor="middle" x="499.75" y="-611.42" font-family="Liberation Sans" font-size="9.00" fill="white">sentiment</text>
</g>
<!-- shade -->
<g id="node51" class="node">
<title>shade</title>
<ellipse fill="#1a1a1a" stroke="#888888" stroke-width="1.5" cx="340.94" cy="-125.77" rx="20" ry="20"/>
<ellipse fill="none" stroke="#888888" stroke-width="1.5" cx="340.94" cy="-125.77" rx="24" ry="24"/>
<text text-anchor="middle" x="340.94" y="-123.57" font-family="Liberation Sans" font-size="9.00" fill="white">shade</text>
</g>
<!-- simple -->
<g id="node52" class="node">
<title>simple</title>
<ellipse fill="#4a6b1a" stroke="black" stroke-width="0" cx="465.08" cy="-222.57" rx="20" ry="20"/>
<text text-anchor="middle" x="465.08" y="-220.37" font-family="Liberation Sans" font-size="9.00" fill="white">simple</text>
</g>
<!-- sink -->
<g id="node53" class="node">
<title>sink</title>
<ellipse fill="#3a6b1a" stroke="black" stroke-width="0" cx="146.08" cy="-599.57" rx="20" ry="20"/>
<text text-anchor="middle" x="146.08" y="-597.37" font-family="Liberation Sans" font-size="9.00" fill="white">sink</text>
</g>
<!-- soul -->
<g id="node54" class="node">
<title>soul</title>
<ellipse fill="#1a1a1a" stroke="#888888" stroke-width="1.5" cx="254.25" cy="-380.27" rx="20" ry="20"/>
<ellipse fill="none" stroke="#888888" stroke-width="1.5" cx="254.25" cy="-380.27" rx="24" ry="24"/>
<text text-anchor="middle" x="254.25" y="-378.07" font-family="Liberation Sans" font-size="9.00" fill="white">soul</text>
</g>
<!-- spirit -->
<g id="node55" class="node">
<title>spirit</title>
<ellipse fill="#1a4a6b" stroke="black" stroke-width="0" cx="221.81" cy="-465.32" rx="20" ry="20"/>
<text text-anchor="middle" x="221.81" y="-463.12" font-family="Liberation Sans" font-size="9.00" fill="white">spirit</text>
</g>
<!-- stern -->
<g id="node56" class="node">
<title>stern</title>
<ellipse fill="#1a5a6b" stroke="black" stroke-width="0" cx="49.45" cy="-78.41" rx="20" ry="20"/>
<text text-anchor="middle" x="49.45" y="-76.21" font-family="Liberation Sans" font-size="9.00" fill="white">stern</text>
</g>
<!-- sublime -->
<g id="node57" class="node">
<title>sublime</title>
<ellipse fill="#5a1a6b" stroke="black" stroke-width="0" cx="1095.94" cy="-527.56" rx="20" ry="20"/>
<text text-anchor="middle" x="1095.94" y="-525.36" font-family="Liberation Sans" font-size="9.00" fill="white">sublime</text>
</g>
<!-- terrible -->
<g id="node58" class="node">
<title>terrible</title>
<ellipse fill="#1a6b5a" stroke="black" stroke-width="0" cx="146.08" cy="-512.57" rx="20" ry="20"/>
<text text-anchor="middle" x="146.08" y="-510.37" font-family="Liberation Sans" font-size="9.00" fill="white">terrible</text>
</g>
<!-- think -->
<g id="node59" class="node">
<title>think</title>
<ellipse fill="#1a4a6b" stroke="black" stroke-width="0" cx="322.11" cy="-19.68" rx="20" ry="20"/>
<text text-anchor="middle" x="322.11" y="-17.48" font-family="Liberation Sans" font-size="9.00" fill="white">think</text>
</g>
<!-- tract -->
<g id="node60" class="node">
<title>tract</title>
<ellipse fill="#1a4a6b" stroke="black" stroke-width="0" cx="277.75" cy="-596.05" rx="20" ry="20"/>
<text text-anchor="middle" x="277.75" y="-593.85" font-family="Liberation Sans" font-size="9.00" fill="white">tract</text>
</g>
<!-- tree -->
<g id="node61" class="node">
<title>tree</title>
<ellipse fill="#1a6b3a" stroke="black" stroke-width="0" cx="842.74" cy="-435.1" rx="20" ry="20"/>
<text text-anchor="middle" x="842.74" y="-432.9" font-family="Liberation Sans" font-size="9.00" fill="white">tree</text>
</g>
<!-- trunk -->
<g id="node62" class="node">
<title>trunk</title>
<ellipse fill="#1a1a1a" stroke="#888888" stroke-width="1.5" cx="790.79" cy="-325.69" rx="20" ry="20"/>
<ellipse fill="none" stroke="#888888" stroke-width="1.5" cx="790.79" cy="-325.69" rx="24" ry="24"/>
<text text-anchor="middle" x="790.79" y="-323.49" font-family="Liberation Sans" font-size="9.00" fill="white">trunk</text>
</g>
<!-- utter -->
<g id="node63" class="node">
<title>utter</title>
<ellipse fill="#1a4a6b" stroke="black" stroke-width="0" cx="20.5" cy="-388.72" rx="20" ry="20"/>
<text text-anchor="middle" x="20.5" y="-386.52" font-family="Liberation Sans" font-size="9.00" fill="white">utter</text>
</g>
<!-- veil -->
<g id="node64" class="node">
<title>veil</title>
<ellipse fill="#1a6b3a" stroke="black" stroke-width="0" cx="686.72" cy="-386.29" rx="20" ry="20"/>
<text text-anchor="middle" x="686.72" y="-384.09" font-family="Liberation Sans" font-size="9.00" fill="white">veil</text>
</g>
<!-- view -->
<g id="node65" class="node">
<title>view</title>
<ellipse fill="#6b1a1a" stroke="black" stroke-width="0" cx="425.67" cy="-890.35" rx="20" ry="20"/>
<text text-anchor="middle" x="425.67" y="-888.15" font-family="Liberation Sans" font-size="9.00" fill="white">view</text>
</g>
<!-- wall -->
<g id="node66" class="node">
<title>wall</title>
<ellipse fill="#6b3a1a" stroke="black" stroke-width="0" cx="193.67" cy="-803.35" rx="20" ry="20"/>
<text text-anchor="middle" x="193.67" y="-801.15" font-family="Liberation Sans" font-size="9.00" fill="white">wall</text>
</g>
<!-- white -->
<g id="node67" class="node">
<title>white</title>
<ellipse fill="#1a4a6b" stroke="black" stroke-width="0" cx="203.1" cy="-87.71" rx="20" ry="20"/>
<text text-anchor="middle" x="203.1" y="-85.51" font-family="Liberation Sans" font-size="9.00" fill="white">white</text>
</g>
<!-- window -->
<g id="node68" class="node">
<title>window</title>
<ellipse fill="#6b1a4a" stroke="black" stroke-width="0" cx="610.08" cy="-164.57" rx="20" ry="20"/>
<text text-anchor="middle" x="610.08" y="-162.37" font-family="Liberation Sans" font-size="9.00" fill="white">window</text>
</g>
<!-- year -->
<g id="node69" class="node">
<title>year</title>
<ellipse fill="#1a1a1a" stroke="#888888" stroke-width="1.5" cx="883.14" cy="-737.43" rx="20" ry="20"/>
<ellipse fill="none" stroke="#888888" stroke-width="1.5" cx="883.14" cy="-737.43" rx="24" ry="24"/>
<text text-anchor="middle" x="883.14" y="-735.23" font-family="Liberation Sans" font-size="9.00" fill="white">year</text>
</g>
</g>
</svg>
