<?xml version="1.0" encoding="UTF-8" standalone="no"?>
<!DOCTYPE svg PUBLIC "-//W3C//DTD SVG 1.1//EN"
 "http://www.w3.org/Graphics/SVG/1.1/DTD/svg11.dtd">
<!-- Generated by graphviz version 2.43.0 (0)
 -->
<!-- Title: isotopy Pages: 1 -->
<svg width="836pt" height="872pt"
 viewBox="0.00 0.00 836.00 872.00" xmlns="http://www.w3.org/2000/svg" xmlns:xlink="http://www.w3.org/1999/xlink">
<g id="graph0" class="graph" transform="scale(1 1) rotate(0) translate(36 836)">
<title>isotopy</title>
<polygon fill="white" stroke="transparent" points="-36,36 -36,-836 800,-836 800,36 -36,36"/>
<!-- agree&#45;&#45;consent -->
<g id="edge1" class="edge">
<title>agree&#45;&#45;consent</title>
<path fill="none" stroke="#aaaaaa" stroke-width="0.8" d="M316.11,-210.73C324.88,-209.42 335.16,-207.89 343.95,-206.57"/>
</g>
<!-- argument&#45;&#45;attest -->
<g id="edge2" class="edge">
<title>argument&#45;&#45;attest</title>
<path fill="none" stroke="#aaaaaa" stroke-width="0.8" d="M432.54,-69.56C445.83,-81.5 463.64,-97.49 476.12,-108.69"/>
</g>
<!-- argument&#45;&#45;prove -->
<g id="edge3" class="edge">
<title>argument&#45;&#45;prove</title>
<path fill="none" stroke="#aaaaaa" stroke-width="0.8" d="M437.58,-45.44C455.14,-39.55 478.96,-31.56 495.42,-26.04"/>
</g>
<!-- argument&#45;&#45;write -->
<g id="edge4" class="edge">
<title>argument&#45;&#45;write</title>
<path fill="none" stroke="#aaaaaa" stroke-width="0.8" d="M400.74,-73.29C393.16,-84.44 383.86,-98.16 376.7,-108.69"/>
</g>
<!-- attest&#45;&#45;prove -->
<g id="edge5" class="edge">
<title>attest&#45;&#45;prove</title>
<path fill="none" stroke="#aaaaaa" stroke-width="0.8" d="M495.59,-102.36C499.74,-84.22 505.85,-57.47 509.99,-39.34"/>
</g>
<!-- avert&#45;&#45;escape -->
<g id="edge6" class="edge">
<title>avert&#45;&#45;escape</title>
<path fill="none" stroke="#aaaaaa" stroke-width="0.8" d="M85.74,-85.92C96.78,-87.45 110.6,-89.37 122.23,-90.99"/>
</g>
<!-- body&#45;&#45;brother -->
<g id="edge7" class="edge">
<title>body&#45;&#45;brother</title>
<path fill="none" stroke="#aaaaaa" stroke-width="0.8" d="M199.38,-228.2C173.61,-214.13 130.55,-190.63 106.44,-177.47"/>
</g>
<!-- body&#45;&#45;flesh -->
<g id="edge8" class="edge">
<title>body&#45;&#45;flesh</title>
<path fill="none" stroke="#aaaaaa" stroke-width="0.8" d="M240.15,-253.77C251.41,-261.83 265.52,-271.93 276.81,-280.01"/>
</g>
<!-- body&#45;&#45;ghost -->
<g id="edge9" class="edge">
<title>body&#45;&#45;ghost</title>
<path fill="none" stroke="#aaaaaa" stroke-width="0.8" d="M229.58,-217.26C241.45,-187.61 262.12,-135.99 273.21,-108.29"/>
</g>
<!-- body&#45;&#45;make -->
<g id="edge10" class="edge">
<title>body&#45;&#45;make</title>
<path fill="none" stroke="#aaaaaa" stroke-width="0.8" d="M224.57,-263.64C230.57,-299.47 241.79,-366.46 247.36,-399.75"/>
</g>
<!-- break&#45;&#45;flesh -->
<g id="edge11" class="edge">
<title>break&#45;&#45;flesh</title>
<path fill="none" stroke="#aaaaaa" stroke-width="0.8" d="M425.23,-340.38C398.13,-330.65 348.43,-312.79 319.38,-302.35"/>
</g>
<!-- break&#45;&#45;tear -->
<g id="edge12" class="edge">
<title>break&#45;&#45;tear</title>
<path fill="none" stroke="#aaaaaa" stroke-width="0.8" d="M442.11,-327.09C439.19,-299.45 433.98,-250.02 431.07,-222.46"/>
</g>
<!-- catch&#45;&#45;take -->
<g id="edge13" class="edge">
<title>catch&#45;&#45;take</title>
<path fill="none" stroke="#aaaaaa" stroke-width="0.8" d="M517,-175.64C528.25,-164.05 544.02,-147.8 555.92,-135.54"/>
</g>
<!-- claim&#45;&#45;possess -->
<g id="edge14" class="edge">
<title>claim&#45;&#45;possess</title>
<path fill="none" stroke="#aaaaaa" stroke-width="0.8" d="M406.7,-636.59C421.25,-642.1 441.38,-649.72 456.74,-655.53"/>
</g>
<!-- curiosity&#45;&#45;spectacle -->
<g id="edge15" class="edge">
<title>curiosity&#45;&#45;spectacle</title>
<path fill="none" stroke="#aaaaaa" stroke-width="0.8" d="M523.11,-256.73C531.88,-255.42 542.16,-253.89 550.95,-252.57"/>
</g>
<!-- entrance&#45;&#45;force -->
<g id="edge16" class="edge">
<title>entrance&#45;&#45;force</title>
<path fill="none" stroke="#aaaaaa" stroke-width="0.8" d="M404.56,-404.92C431.37,-423.95 484.56,-461.71 513.43,-482.2"/>
</g>
<!-- escape&#45;&#45;prison -->
<g id="edge17" class="edge">
<title>escape&#45;&#45;prison</title>
<path fill="none" stroke="#aaaaaa" stroke-width="0.8" d="M166.59,-81.17C179.67,-72.78 196.42,-62.05 208.74,-54.15"/>
</g>
<!-- escape&#45;&#45;refuge -->
<g id="edge18" class="edge">
<title>escape&#45;&#45;refuge</title>
<path fill="none" stroke="#aaaaaa" stroke-width="0.8" d="M158.04,-115.52C164.02,-126.14 171.17,-138.84 176.82,-148.88"/>
</g>
<!-- execute&#45;&#45;night -->
<g id="edge19" class="edge">
<title>execute&#45;&#45;night</title>
<path fill="none" stroke="#aaaaaa" stroke-width="0.8" d="M725.49,-129.8C716.33,-117.52 704.56,-101.77 695.43,-89.53"/>
</g>
<!-- execute&#45;&#45;take -->
<g id="edge20" class="edge">
<title>execute&#45;&#45;take</title>
<path fill="none" stroke="#aaaaaa" stroke-width="0.8" d="M716.48,-144.97C684.68,-139.05 628.41,-128.57 596.53,-122.63"/>
</g>
<!-- eye&#45;&#45;hear -->
<g id="edge21" class="edge">
<title>eye&#45;&#45;hear</title>
<path fill="none" stroke="#aaaaaa" stroke-width="0.8" d="M85.91,-318.92C97.81,-318.77 112.77,-318.57 124.62,-318.42"/>
</g>
<!-- eye&#45;&#45;see -->
<g id="edge22" class="edge">
<title>eye&#45;&#45;see</title>
<path fill="none" stroke="#aaaaaa" stroke-width="0.8" d="M75.49,-301.41C81.31,-291.02 88.62,-277.97 94.41,-267.63"/>
</g>
<!-- fact&#45;&#45;story -->
<g id="edge23" class="edge">
<title>fact&#45;&#45;story</title>
<path fill="none" stroke="#aaaaaa" stroke-width="0.8" d="M101.03,-586.61C111.22,-583.88 123.14,-580.68 133.34,-577.95"/>
</g>
<!-- fact&#45;&#45;tale -->
<g id="edge24" class="edge">
<title>fact&#45;&#45;tale</title>
<path fill="none" stroke="#aaaaaa" stroke-width="0.8" d="M67.17,-614.84C62.3,-624.93 56.59,-636.77 51.95,-646.39"/>
</g>
<!-- fact&#45;&#45;thesis -->
<g id="edge25" class="edge">
<title>fact&#45;&#45;thesis</title>
<path fill="none" stroke="#aaaaaa" stroke-width="0.8" d="M93.75,-611.55C110.91,-631.65 137.87,-663.22 153.89,-681.98"/>
</g>
<!-- flesh&#45;&#45;nameless -->
<g id="edge26" class="edge">
<title>flesh&#45;&#45;nameless</title>
<path fill="none" stroke="#aaaaaa" stroke-width="0.8" d="M274.5,-303.77C240.37,-318.62 175.43,-346.87 143.56,-360.74"/>
</g>
<!-- flesh&#45;&#45;tear -->
<g id="edge27" class="edge">
<title>flesh&#45;&#45;tear</title>
<path fill="none" stroke="#aaaaaa" stroke-width="0.8" d="M316.4,-280.44C342.51,-262.36 387.97,-230.89 412.37,-214.01"/>
</g>
<!-- force&#45;&#45;gallows -->
<g id="edge28" class="edge">
<title>force&#45;&#45;gallows</title>
<path fill="none" stroke="#aaaaaa" stroke-width="0.8" d="M556.39,-488.81C573.95,-483.21 597.76,-475.61 614.21,-470.36"/>
</g>
<!-- force&#45;&#45;hurry -->
<g id="edge29" class="edge">
<title>force&#45;&#45;hurry</title>
<path fill="none" stroke="#aaaaaa" stroke-width="0.8" d="M539.02,-519.81C545.08,-544.31 554.46,-582.23 560.13,-605.17"/>
</g>
<!-- force&#45;&#45;mountain -->
<g id="edge30" class="edge">
<title>force&#45;&#45;mountain</title>
<path fill="none" stroke="#aaaaaa" stroke-width="0.8" d="M525.06,-473.41C521.64,-463.79 517.66,-452.62 514.24,-443"/>
</g>
<!-- force&#45;&#45;vampire -->
<g id="edge31" class="edge">
<title>force&#45;&#45;vampire</title>
<path fill="none" stroke="#aaaaaa" stroke-width="0.8" d="M542.84,-473.9C553.88,-448.39 571.75,-407.09 582.07,-383.25"/>
</g>
<!-- gallows&#45;&#45;mountain -->
<g id="edge32" class="edge">
<title>gallows&#45;&#45;mountain</title>
<path fill="none" stroke="#aaaaaa" stroke-width="0.8" d="M614.23,-457.68C591.51,-449.8 553.53,-436.64 529.17,-428.2"/>
</g>
<!-- gallows&#45;&#45;vampire -->
<g id="edge33" class="edge">
<title>gallows&#45;&#45;vampire</title>
<path fill="none" stroke="#aaaaaa" stroke-width="0.8" d="M625.15,-445.54C617.43,-427.73 605.9,-401.09 598.19,-383.31"/>
</g>
<!-- ghastly&#45;&#45;hideous -->
<g id="edge34" class="edge">
<title>ghastly&#45;&#45;hideous</title>
<path fill="none" stroke="#aaaaaa" stroke-width="0.8" d="M362.11,-486.73C370.88,-485.42 381.16,-483.89 389.95,-482.57"/>
</g>
<!-- gyration&#45;&#45;swing -->
<g id="edge35" class="edge">
<title>gyration&#45;&#45;swing</title>
<path fill="none" stroke="#aaaaaa" stroke-width="0.8" d="M38.4,-486.67C51.66,-481.74 69.48,-475.12 83.55,-469.9"/>
</g>
<!-- hang&#45;&#45;swing -->
<g id="edge36" class="edge">
<title>hang&#45;&#45;swing</title>
<path fill="none" stroke="#aaaaaa" stroke-width="0.8" d="M159.44,-482.19C150.02,-478.51 138.57,-474.03 128.72,-470.18"/>
</g>
<!-- hear&#45;&#45;see -->
<g id="edge37" class="edge">
<title>hear&#45;&#45;see</title>
<path fill="none" stroke="#aaaaaa" stroke-width="0.8" d="M134.23,-300.65C128.15,-290.41 120.5,-277.55 114.44,-267.37"/>
</g>
<!-- innocent&#45;&#45;possess -->
<g id="edge38" class="edge">
<title>innocent&#45;&#45;possess</title>
<path fill="none" stroke="#aaaaaa" stroke-width="0.8" d="M543.86,-691.31C530.86,-685.82 514.55,-678.94 501.57,-673.46"/>
</g>
<!-- innocent&#45;&#45;unjust -->
<g id="edge39" class="edge">
<title>innocent&#45;&#45;unjust</title>
<path fill="none" stroke="#aaaaaa" stroke-width="0.8" d="M568.23,-724.9C569.14,-736.06 570.2,-749.17 571.06,-759.77"/>
</g>
<!-- mountain&#45;&#45;valley -->
<g id="edge40" class="edge">
<title>mountain&#45;&#45;valley</title>
<path fill="none" stroke="#aaaaaa" stroke-width="0.8" d="M490.67,-438.83C469.6,-464.21 432.25,-509.21 412.66,-532.81"/>
</g>
<!-- mountain&#45;&#45;vampire -->
<g id="edge41" class="edge">
<title>mountain&#45;&#45;vampire</title>
<path fill="none" stroke="#aaaaaa" stroke-width="0.8" d="M526.46,-406.76C540.83,-397.26 559.86,-384.67 573.36,-375.74"/>
</g>
<!-- night&#45;&#45;old -->
<g id="edge42" class="edge">
<title>night&#45;&#45;old</title>
<path fill="none" stroke="#aaaaaa" stroke-width="0.8" d="M677.25,-94C672.21,-126.07 663.3,-182.81 658.25,-214.96"/>
</g>
<!-- old&#45;&#45;strange -->
<g id="edge43" class="edge">
<title>old&#45;&#45;strange</title>
<path fill="none" stroke="#aaaaaa" stroke-width="0.8" d="M673.1,-254.59C686.71,-266.03 704.95,-281.37 717.72,-292.12"/>
</g>
<!-- possess&#45;&#45;species -->
<g id="edge44" class="edge">
<title>possess&#45;&#45;species</title>
<path fill="none" stroke="#aaaaaa" stroke-width="0.8" d="M469.74,-686.43C465.54,-696.34 460.66,-707.86 456.66,-717.3"/>
</g>
<!-- possess&#45;&#45;think -->
<g id="edge45" class="edge">
<title>possess&#45;&#45;think</title>
<path fill="none" stroke="#aaaaaa" stroke-width="0.8" d="M487.52,-641.34C493.15,-625.93 500.51,-605.79 505.83,-591.23"/>
</g>
<!-- say&#45;&#45;tell -->
<g id="edge46" class="edge">
<title>say&#45;&#45;tell</title>
<path fill="none" stroke="#aaaaaa" stroke-width="0.8" d="M302.4,-553.57C290.59,-549.2 275.28,-543.54 262.78,-538.91"/>
</g>
<!-- story&#45;&#45;tale -->
<g id="edge47" class="edge">
<title>story&#45;&#45;tale</title>
<path fill="none" stroke="#aaaaaa" stroke-width="0.8" d="M137.92,-587.07C115.73,-605.26 79.2,-635.2 58.54,-652.14"/>
</g>
<!-- story&#45;&#45;tell -->
<g id="edge48" class="edge">
<title>story&#45;&#45;tell</title>
<path fill="none" stroke="#aaaaaa" stroke-width="0.8" d="M178.57,-560.86C190.81,-554.8 206.02,-547.28 218.24,-541.23"/>
</g>
<!-- agree -->
<g id="node1" class="node">
<title>agree</title>
<ellipse fill="#3a6b1a" stroke="black" stroke-width="0" cx="296.07" cy="-213.73" rx="20" ry="20"/>
<text text-anchor="middle" x="296.07" y="-211.53" font-family="Liberation Sans" font-size="9.00" fill="white">agree</text>
</g>
<!-- argument -->
<g id="node2" class="node">
<title>argument</title>
<ellipse fill="#1a1a1a" stroke="#888888" stroke-width="1.5" cx="414.35" cy="-53.23" rx="20" ry="20"/>
<ellipse fill="none" stroke="#888888" stroke-width="1.5" cx="414.35" cy="-53.23" rx="24" ry="24"/>
<text text-anchor="middle" x="414.35" y="-51.03" font-family="Liberation Sans" font-size="9.00" fill="white">argument</text>
</g>
<!-- attest -->
<g id="node3" class="node">
<title>attest</title>
<ellipse fill="#4a6b1a" stroke="black" stroke-width="0" cx="491.08" cy="-122.12" rx="20" ry="20"/>
<text text-anchor="middle" x="491.08" y="-119.92" font-family="Liberation Sans" font-size="9.00" fill="white">attest</text>
</g>
<!-- avert -->
<g id="node4" class="node">
<title>avert</title>
<ellipse fill="#1a5a6b" stroke="black" stroke-width="0" cx="65.93" cy="-83.16" rx="20" ry="20"/>
<text text-anchor="middle" x="65.93" y="-80.96" font-family="Liberation Sans" font-size="9.00" fill="white">avert</text>
</g>
<!-- body -->
<g id="node5" class="node">
<title>body</title>
<ellipse fill="#1a1a1a" stroke="#888888" stroke-width="1.5" cx="220.57" cy="-239.76" rx="20" ry="20"/>
<ellipse fill="none" stroke="#888888" stroke-width="1.5" cx="220.57" cy="-239.76" rx="24" ry="24"/>
<text text-anchor="middle" x="220.57" y="-237.56" font-family="Liberation Sans" font-size="9.00" fill="white">body</text>
</g>
<!-- break -->
<g id="node6" class="node">
<title>break</title>
<ellipse fill="#1a4a6b" stroke="black" stroke-width="0" cx="444.23" cy="-347.21" rx="20" ry="20"/>
<text text-anchor="middle" x="444.23" y="-345.01" font-family="Liberation Sans" font-size="9.00" fill="white">break</text>
</g>
<!-- brother -->
<g id="node7" class="node">
<title>brother</title>
<ellipse fill="#1a4a6b" stroke="black" stroke-width="0" cx="88.68" cy="-167.78" rx="20" ry="20"/>
<text text-anchor="middle" x="88.68" y="-165.58" font-family="Liberation Sans" font-size="9.00" fill="white">brother</text>
</g>
<!-- catch -->
<g id="node8" class="node">
<title>catch</title>
<ellipse fill="#6b3a1a" stroke="black" stroke-width="0" cx="502.85" cy="-190.21" rx="20" ry="20"/>
<text text-anchor="middle" x="502.85" y="-188.01" font-family="Liberation Sans" font-size="9.00" fill="white">catch</text>
</g>
<!-- claim -->
<g id="node9" class="node">
<title>claim</title>
<ellipse fill="#1a6b3a" stroke="black" stroke-width="0" cx="387.74" cy="-629.42" rx="20" ry="20"/>
<text text-anchor="middle" x="387.74" y="-627.22" font-family="Liberation Sans" font-size="9.00" fill="white">claim</text>
</g>
<!-- consent -->
<g id="node10" class="node">
<title>consent</title>
<ellipse fill="#3a6b1a" stroke="black" stroke-width="0" cx="364.08" cy="-203.57" rx="20" ry="20"/>
<text text-anchor="middle" x="364.08" y="-201.37" font-family="Liberation Sans" font-size="9.00" fill="white">consent</text>
</g>
<!-- curiosity -->
<g id="node11" class="node">
<title>curiosity</title>
<ellipse fill="#1a6b5a" stroke="black" stroke-width="0" cx="503.07" cy="-259.73" rx="20" ry="20"/>
<text text-anchor="middle" x="503.07" y="-257.53" font-family="Liberation Sans" font-size="9.00" fill="white">curiosity</text>
</g>
<!-- entrance -->
<g id="node12" class="node">
<title>entrance</title>
<ellipse fill="#5a1a6b" stroke="black" stroke-width="0" cx="388.21" cy="-393.32" rx="20" ry="20"/>
<text text-anchor="middle" x="388.21" y="-391.12" font-family="Liberation Sans" font-size="9.00" fill="white">entrance</text>
</g>
<!-- escape -->
<g id="node13" class="node">
<title>escape</title>
<ellipse fill="#1a1a1a" stroke="#888888" stroke-width="1.5" cx="146.1" cy="-94.31" rx="20" ry="20"/>
<ellipse fill="none" stroke="#888888" stroke-width="1.5" cx="146.1" cy="-94.31" rx="24" ry="24"/>
<text text-anchor="middle" x="146.1" y="-92.11" font-family="Liberation Sans" font-size="9.00" fill="white">escape</text>
</g>
<!-- execute -->
<g id="node14" class="node">
<title>execute</title>
<ellipse fill="#1a1a1a" stroke="#888888" stroke-width="1.5" cx="740.1" cy="-149.37" rx="20" ry="20"/>
<ellipse fill="none" stroke="#888888" stroke-width="1.5" cx="740.1" cy="-149.37" rx="24" ry="24"/>
<text text-anchor="middle" x="740.1" y="-147.17" font-family="Liberation Sans" font-size="9.00" fill="white">execute</text>
</g>
<!-- eye -->
<g id="node15" class="node">
<title>eye</title>
<ellipse fill="#6b5a1a" stroke="black" stroke-width="0" cx="65.53" cy="-319.19" rx="20" ry="20"/>
<text text-anchor="middle" x="65.53" y="-316.99" font-family="Liberation Sans" font-size="9.00" fill="white">eye</text>
</g>
<!-- fact -->
<g id="node16" class="node">
<title>fact</title>
<ellipse fill="#1a1a1a" stroke="#888888" stroke-width="1.5" cx="77.79" cy="-592.85" rx="20" ry="20"/>
<ellipse fill="none" stroke="#888888" stroke-width="1.5" cx="77.79" cy="-592.85" rx="24" ry="24"/>
<text text-anchor="middle" x="77.79" y="-590.65" font-family="Liberation Sans" font-size="9.00" fill="white">fact</text>
</g>
<!-- flesh -->
<g id="node17" class="node">
<title>flesh</title>
<ellipse fill="#1a1a1a" stroke="#888888" stroke-width="1.5" cx="296.58" cy="-294.16" rx="20" ry="20"/>
<ellipse fill="none" stroke="#888888" stroke-width="1.5" cx="296.58" cy="-294.16" rx="24" ry="24"/>
<text text-anchor="middle" x="296.58" y="-291.96" font-family="Liberation Sans" font-size="9.00" fill="white">flesh</text>
</g>
<!-- force -->
<g id="node18" class="node">
<title>force</title>
<ellipse fill="#1a1a1a" stroke="#888888" stroke-width="1.5" cx="533.18" cy="-496.22" rx="20" ry="20"/>
<ellipse fill="none" stroke="#888888" stroke-width="1.5" cx="533.18" cy="-496.22" rx="24" ry="24"/>
<text text-anchor="middle" x="533.18" y="-494.02" font-family="Liberation Sans" font-size="9.00" fill="white">force</text>
</g>
<!-- gallows -->
<g id="node19" class="node">
<title>gallows</title>
<ellipse fill="#5a1a6b" stroke="black" stroke-width="0" cx="633.27" cy="-464.27" rx="20" ry="20"/>
<text text-anchor="middle" x="633.27" y="-462.07" font-family="Liberation Sans" font-size="9.00" fill="white">gallows</text>
</g>
<!-- ghastly -->
<g id="node20" class="node">
<title>ghastly</title>
<ellipse fill="#6b1a4a" stroke="black" stroke-width="0" cx="342.07" cy="-489.73" rx="20" ry="20"/>
<text text-anchor="middle" x="342.07" y="-487.53" font-family="Liberation Sans" font-size="9.00" fill="white">ghastly</text>
</g>
<!-- ghost -->
<g id="node21" class="node">
<title>ghost</title>
<ellipse fill="#1a4a6b" stroke="black" stroke-width="0" cx="280.76" cy="-89.44" rx="20" ry="20"/>
<text text-anchor="middle" x="280.76" y="-87.24" font-family="Liberation Sans" font-size="9.00" fill="white">ghost</text>
</g>
<!-- gyration -->
<g id="node22" class="node">
<title>gyration</title>
<ellipse fill="#3a1a6b" stroke="black" stroke-width="0" cx="19.57" cy="-493.66" rx="20" ry="20"/>
<text text-anchor="middle" x="19.57" y="-491.46" font-family="Liberation Sans" font-size="9.00" fill="white">gyration</text>
</g>
<!-- hang -->
<g id="node23" class="node">
<title>hang</title>
<ellipse fill="#3a1a6b" stroke="black" stroke-width="0" cx="178.36" cy="-489.59" rx="20" ry="20"/>
<text text-anchor="middle" x="178.36" y="-487.39" font-family="Liberation Sans" font-size="9.00" fill="white">hang</text>
</g>
<!-- hear -->
<g id="node24" class="node">
<title>hear</title>
<ellipse fill="#6b5a1a" stroke="black" stroke-width="0" cx="144.65" cy="-318.16" rx="20" ry="20"/>
<text text-anchor="middle" x="144.65" y="-315.96" font-family="Liberation Sans" font-size="9.00" fill="white">hear</text>
</g>
<!-- hideous -->
<g id="node25" class="node">
<title>hideous</title>
<ellipse fill="#6b1a4a" stroke="black" stroke-width="0" cx="410.08" cy="-479.57" rx="20" ry="20"/>
<text text-anchor="middle" x="410.08" y="-477.37" font-family="Liberation Sans" font-size="9.00" fill="white">hideous</text>
</g>
<!-- hurry -->
<g id="node26" class="node">
<title>hurry</title>
<ellipse fill="#5a1a6b" stroke="black" stroke-width="0" cx="564.99" cy="-624.82" rx="20" ry="20"/>
<text text-anchor="middle" x="564.99" y="-622.62" font-family="Liberation Sans" font-size="9.00" fill="white">hurry</text>
</g>
<!-- innocent -->
<g id="node27" class="node">
<title>innocent</title>
<ellipse fill="#1a1a1a" stroke="#888888" stroke-width="1.5" cx="566.28" cy="-700.76" rx="20" ry="20"/>
<ellipse fill="none" stroke="#888888" stroke-width="1.5" cx="566.28" cy="-700.76" rx="24" ry="24"/>
<text text-anchor="middle" x="566.28" y="-698.56" font-family="Liberation Sans" font-size="9.00" fill="white">innocent</text>
</g>
<!-- make -->
<g id="node28" class="node">
<title>make</title>
<ellipse fill="#1a4a6b" stroke="black" stroke-width="0" cx="250.68" cy="-419.57" rx="20" ry="20"/>
<text text-anchor="middle" x="250.68" y="-417.37" font-family="Liberation Sans" font-size="9.00" fill="white">make</text>
</g>
<!-- mountain -->
<g id="node29" class="node">
<title>mountain</title>
<ellipse fill="#1a1a1a" stroke="#888888" stroke-width="1.5" cx="506.12" cy="-420.21" rx="20" ry="20"/>
<ellipse fill="none" stroke="#888888" stroke-width="1.5" cx="506.12" cy="-420.21" rx="24" ry="24"/>
<text text-anchor="middle" x="506.12" y="-418.01" font-family="Liberation Sans" font-size="9.00" fill="white">mountain</text>
</g>
<!-- nameless -->
<g id="node30" class="node">
<title>nameless</title>
<ellipse fill="#1a4a6b" stroke="black" stroke-width="0" cx="124.97" cy="-368.83" rx="20" ry="20"/>
<text text-anchor="middle" x="124.97" y="-366.63" font-family="Liberation Sans" font-size="9.00" fill="white">nameless</text>
</g>
<!-- night -->
<g id="node31" class="node">
<title>night</title>
<ellipse fill="#1a1a1a" stroke="#888888" stroke-width="1.5" cx="680.99" cy="-70.18" rx="20" ry="20"/>
<ellipse fill="none" stroke="#888888" stroke-width="1.5" cx="680.99" cy="-70.18" rx="24" ry="24"/>
<text text-anchor="middle" x="680.99" y="-67.98" font-family="Liberation Sans" font-size="9.00" fill="white">night</text>
</g>
<!-- old -->
<g id="node32" class="node">
<title>old</title>
<ellipse fill="#1a1a1a" stroke="#888888" stroke-width="1.5" cx="654.48" cy="-238.93" rx="20" ry="20"/>
<ellipse fill="none" stroke="#888888" stroke-width="1.5" cx="654.48" cy="-238.93" rx="24" ry="24"/>
<text text-anchor="middle" x="654.48" y="-236.73" font-family="Liberation Sans" font-size="9.00" fill="white">old</text>
</g>
<!-- possess -->
<g id="node33" class="node">
<title>possess</title>
<ellipse fill="#1a1a1a" stroke="#888888" stroke-width="1.5" cx="479.22" cy="-664.04" rx="20" ry="20"/>
<ellipse fill="none" stroke="#888888" stroke-width="1.5" cx="479.22" cy="-664.04" rx="24" ry="24"/>
<text text-anchor="middle" x="479.22" y="-661.84" font-family="Liberation Sans" font-size="9.00" fill="white">possess</text>
</g>
<!-- prison -->
<g id="node34" class="node">
<title>prison</title>
<ellipse fill="#1a5a6b" stroke="black" stroke-width="0" cx="225.67" cy="-43.29" rx="20" ry="20"/>
<text text-anchor="middle" x="225.67" y="-41.09" font-family="Liberation Sans" font-size="9.00" fill="white">prison</text>
</g>
<!-- prove -->
<g id="node35" class="node">
<title>prove</title>
<ellipse fill="#4a6b1a" stroke="black" stroke-width="0" cx="514.49" cy="-19.64" rx="20" ry="20"/>
<text text-anchor="middle" x="514.49" y="-17.44" font-family="Liberation Sans" font-size="9.00" fill="white">prove</text>
</g>
<!-- refuge -->
<g id="node36" class="node">
<title>refuge</title>
<ellipse fill="#1a5a6b" stroke="black" stroke-width="0" cx="186.63" cy="-166.31" rx="20" ry="20"/>
<text text-anchor="middle" x="186.63" y="-164.11" font-family="Liberation Sans" font-size="9.00" fill="white">refuge</text>
</g>
<!-- say -->
<g id="node37" class="node">
<title>say</title>
<ellipse fill="#6b1a1a" stroke="black" stroke-width="0" cx="321.26" cy="-560.54" rx="20" ry="20"/>
<text text-anchor="middle" x="321.26" y="-558.34" font-family="Liberation Sans" font-size="9.00" fill="white">say</text>
</g>
<!-- see -->
<g id="node38" class="node">
<title>see</title>
<ellipse fill="#6b5a1a" stroke="black" stroke-width="0" cx="104.2" cy="-250.15" rx="20" ry="20"/>
<text text-anchor="middle" x="104.2" y="-247.95" font-family="Liberation Sans" font-size="9.00" fill="white">see</text>
</g>
<!-- species -->
<g id="node39" class="node">
<title>species</title>
<ellipse fill="#1a6b3a" stroke="black" stroke-width="0" cx="448.73" cy="-736.05" rx="20" ry="20"/>
<text text-anchor="middle" x="448.73" y="-733.85" font-family="Liberation Sans" font-size="9.00" fill="white">species</text>
</g>
<!-- spectacle -->
<g id="node40" class="node">
<title>spectacle</title>
<ellipse fill="#1a6b5a" stroke="black" stroke-width="0" cx="571.08" cy="-249.57" rx="20" ry="20"/>
<text text-anchor="middle" x="571.08" y="-247.37" font-family="Liberation Sans" font-size="9.00" fill="white">spectacle</text>
</g>
<!-- story -->
<g id="node41" class="node">
<title>story</title>
<ellipse fill="#1a1a1a" stroke="#888888" stroke-width="1.5" cx="156.69" cy="-571.68" rx="20" ry="20"/>
<ellipse fill="none" stroke="#888888" stroke-width="1.5" cx="156.69" cy="-571.68" rx="24" ry="24"/>
<text text-anchor="middle" x="156.69" y="-569.48" font-family="Liberation Sans" font-size="9.00" fill="white">story</text>
</g>
<!-- strange -->
<g id="node42" class="node">
<title>strange</title>
<ellipse fill="#6b3a1a" stroke="black" stroke-width="0" cx="733.04" cy="-305" rx="20" ry="20"/>
<text text-anchor="middle" x="733.04" y="-302.8" font-family="Liberation Sans" font-size="9.00" fill="white">strange</text>
</g>
<!-- swing -->
<g id="node43" class="node">
<title>swing</title>
<ellipse fill="#1a1a1a" stroke="#888888" stroke-width="1.5" cx="106.35" cy="-461.43" rx="20" ry="20"/>
<ellipse fill="none" stroke="#888888" stroke-width="1.5" cx="106.35" cy="-461.43" rx="24" ry="24"/>
<text text-anchor="middle" x="106.35" y="-459.23" font-family="Liberation Sans" font-size="9.00" fill="white">swing</text>
</g>
<!-- take -->
<g id="node44" class="node">
<title>take</title>
<ellipse fill="#1a1a1a" stroke="#888888" stroke-width="1.5" cx="572.76" cy="-118.2" rx="20" ry="20"/>
<ellipse fill="none" stroke="#888888" stroke-width="1.5" cx="572.76" cy="-118.2" rx="24" ry="24"/>
<text text-anchor="middle" x="572.76" y="-116" font-family="Liberation Sans" font-size="9.00" fill="white">take</text>
</g>
<!-- tale -->
<g id="node45" class="node">
<title>tale</title>
<ellipse fill="#6b1a1a" stroke="black" stroke-width="0" cx="43.03" cy="-664.85" rx="20" ry="20"/>
<text text-anchor="middle" x="43.03" y="-662.65" font-family="Liberation Sans" font-size="9.00" fill="white">tale</text>
</g>
<!-- tear -->
<g id="node46" class="node">
<title>tear</title>
<ellipse fill="#1a4a6b" stroke="black" stroke-width="0" cx="428.97" cy="-202.52" rx="20" ry="20"/>
<text text-anchor="middle" x="428.97" y="-200.32" font-family="Liberation Sans" font-size="9.00" fill="white">tear</text>
</g>
<!-- tell -->
<g id="node47" class="node">
<title>tell</title>
<ellipse fill="#1a1a1a" stroke="#888888" stroke-width="1.5" cx="239.98" cy="-530.48" rx="20" ry="20"/>
<ellipse fill="none" stroke="#888888" stroke-width="1.5" cx="239.98" cy="-530.48" rx="24" ry="24"/>
<text text-anchor="middle" x="239.98" y="-528.28" font-family="Liberation Sans" font-size="9.00" fill="white">tell</text>
</g>
<!-- thesis -->
<g id="node48" class="node">
<title>thesis</title>
<ellipse fill="#6b1a1a" stroke="black" stroke-width="0" cx="167.1" cy="-697.45" rx="20" ry="20"/>
<text text-anchor="middle" x="167.1" y="-695.25" font-family="Liberation Sans" font-size="9.00" fill="white">thesis</text>
</g>
<!-- think -->
<g id="node49" class="node">
<title>think</title>
<ellipse fill="#1a6b3a" stroke="black" stroke-width="0" cx="512.79" cy="-572.19" rx="20" ry="20"/>
<text text-anchor="middle" x="512.79" y="-569.99" font-family="Liberation Sans" font-size="9.00" fill="white">think</text>
</g>
<!-- unjust -->
<g id="node50" class="node">
<title>unjust</title>
<ellipse fill="#1a6b3a" stroke="black" stroke-width="0" cx="572.68" cy="-779.77" rx="20" ry="20"/>
<text text-anchor="middle" x="572.68" y="-777.57" font-family="Liberation Sans" font-size="9.00" fill="white">unjust</text>
</g>
<!-- valley -->
<g id="node51" class="node">
<title>valley</title>
<ellipse fill="#5a1a6b" stroke="black" stroke-width="0" cx="399.86" cy="-548.24" rx="20" ry="20"/>
<text text-anchor="middle" x="399.86" y="-546.04" font-family="Liberation Sans" font-size="9.00" fill="white">valley</text>
</g>
<!-- vampire -->
<g id="node52" class="node">
<title>vampire</title>
<ellipse fill="#5a1a6b" stroke="black" stroke-width="0" cx="590.11" cy="-364.66" rx="20" ry="20"/>
<text text-anchor="middle" x="590.11" y="-362.46" font-family="Liberation Sans" font-size="9.00" fill="white">vampire</text>
</g>
<!-- write -->
<g id="node53" class="node">
<title>write</title>
<ellipse fill="#4a6b1a" stroke="black" stroke-width="0" cx="365.47" cy="-125.24" rx="20" ry="20"/>
<text text-anchor="middle" x="365.47" y="-123.04" font-family="Liberation Sans" font-size="9.00" fill="white">write</text>
</g>
</g>
</svg>
